<?xml version="1.0" standalone="no"?>
<!DOCTYPE svg PUBLIC "-//W3C//DTD SVG 20010904//EN"
 "http://www.w3.org/TR/2001/REC-SVG-20010904/DTD/svg10.dtd">
<svg version="1.0" xmlns="http://www.w3.org/2000/svg"
 width="700.000000pt" height="700.000000pt" viewBox="0 0 700.000000 700.000000"
 preserveAspectRatio="xMidYMid meet">
<metadata>
Created by potrace 1.11, written by Peter Selinger 2001-2013
</metadata>
<g transform="translate(0.000000,700.000000) scale(0.100000,-0.100000)"
fill="#000000" stroke="none">
<path d="M3219 6936 c-2 -2 -38 -6 -79 -10 -41 -4 -86 -8 -100 -10 -14 -2 -48
-7 -76 -10 -28 -4 -61 -9 -75 -11 -13 -3 -58 -12 -99 -20 -375 -73 -807 -242
-1101 -431 -38 -24 -73 -44 -78 -44 -5 0 -11 -3 -13 -7 -1 -5 -23 -21 -48 -38
-266 -177 -558 -450 -756 -705 -32 -41 -61 -77 -64 -80 -10 -8 -141 -207 -195
-295 -164 -270 -333 -695 -389 -975 -33 -164 -46 -239 -52 -287 -3 -32 -8 -67
-10 -78 -10 -51 -19 -236 -18 -395 0 -276 20 -467 75 -715 11 -49 22 -99 25
-111 7 -38 65 -228 89 -294 122 -340 275 -623 493 -915 185 -247 444 -505 685
-680 38 -28 81 -59 95 -71 54 -42 249 -159 367 -220 398 -208 818 -329 1285
-371 156 -14 651 -6 680 12 3 1 34 6 70 10 36 4 67 8 70 10 3 2 26 6 50 10
329 48 777 213 1106 406 123 72 400 261 424 290 3 3 37 32 75 64 539 450 938
1103 1104 1805 16 69 32 143 35 165 4 22 11 65 16 95 9 55 14 98 29 245 9 84
6 521 -3 590 -3 22 -8 62 -11 88 -3 26 -7 58 -10 70 -2 12 -7 45 -10 72 -20
171 -102 468 -193 700 -102 263 -303 618 -464 819 -348 436 -715 738 -1183
973 -336 168 -718 283 -1093 329 -26 3 -63 8 -82 11 -42 5 -566 14 -571 9z"/>
</g>
</svg>
