<?xml version="1.0" standalone="no"?>
<!DOCTYPE svg PUBLIC "-//W3C//DTD SVG 20010904//EN"
 "http://www.w3.org/TR/2001/REC-SVG-20010904/DTD/svg10.dtd">
<svg version="1.0" xmlns="http://www.w3.org/2000/svg"
 width="700.000000pt" height="700.000000pt" viewBox="0 0 700.000000 700.000000"
 preserveAspectRatio="xMidYMid meet">
<metadata>
Created by potrace 1.14, written by Peter Selinger 2001-2017
</metadata>
<g transform="translate(0.000000,700.000000) scale(0.100000,-0.100000)"
fill="#000000" stroke="none">
<path d="M2627 6123 c-4 -3 -7 -102 -7 -220 l0 -213 -435 0 -435 0 0 -220 0
-220 -220 0 -220 0 0 -435 0 -435 -217 -2 -218 -3 0 -875 0 -875 218 -3 217
-2 0 -435 0 -435 220 0 220 0 0 -220 0 -220 435 0 435 0 2 -217 3 -218 875 0
875 0 3 218 2 217 435 0 435 0 0 220 0 220 220 0 220 0 0 435 0 435 218 2 217
3 0 875 0 875 -217 3 -218 2 0 435 0 435 -220 0 -220 0 0 220 0 220 -435 0
-435 0 -2 218 -3 217 -871 3 c-479 1 -874 -1 -877 -5z m1743 -653 l0 -220 440
0 440 0 0 -435 0 -435 -437 -2 -438 -3 -3 -217 -2 -218 -870 0 -870 0 -2 218
-3 217 -437 3 -438 2 0 435 0 435 440 0 440 0 0 220 0 220 870 0 870 0 0 -220z
m-2620 -1315 l0 -215 435 0 435 0 0 -440 0 -440 -435 0 -435 0 0 -215 0 -215
-220 0 -220 0 0 215 0 215 220 0 220 0 0 440 0 440 -220 0 -220 0 0 215 0 215
220 0 220 0 0 -215z m3940 0 l0 -215 -220 0 -220 0 0 -440 0 -440 220 0 220 0
0 -215 0 -215 -220 0 -220 0 0 215 0 215 -435 0 -435 0 0 440 0 440 435 0 435
0 0 215 0 215 220 0 220 0 0 -215z m-1750 -875 l0 -220 215 0 215 0 2 -217 3
-218 438 -3 437 -2 0 -435 0 -435 -440 0 -440 0 0 -220 0 -220 -870 0 -870 0
0 220 0 220 -440 0 -440 0 0 435 0 435 438 2 437 3 3 218 2 217 215 0 215 0 0
220 0 220 440 0 440 0 0 -220z"/>
</g>
</svg>
