<svg width="223.412" height="178.675" viewBox="0 0 59.111 47.274" version="1.1" xml:space="preserve" xmlns:xlink="http://www.w3.org/1999/xlink" xmlns="http://www.w3.org/2000/svg"><defs><path fill="#fff" stroke="none" d="M478.15 84.2q-.25-.05-.5-.05-.857.286-1.45.8h-3.05l-8.45-.1-45.75-.1h-40.4v.1h-27.4l-3.65.1q-1.35 0-2.7.05l-9.95.1-2.95.1q-.5 0-1 .05l-5.85.1-3.2.1q-1.25 0-2.55.05-.85.05-1.75.1-.4.05-.8.05-.6.05-1.15.1l-.4.1q-.15.05-.25.05-.15.1-.25.2-.15.1-.25.25h-.5q-4.5 0-8.95.05l-2 .1q-1 .05-2.05.1-2.85 0-5.7.05l-1.8.1q-.354.035-.75.05-.2-.432-.45-.85-.5-.4-1.05-.75-.65-.35-1.25-.7 0 .1-.05.1-.4.1-.85.25-.2.1-.4.3-.6 1.25-.9 2.75-.15.7-.15 1.5-.65 1.25-.9 2.7-.2.95-.1 1.95-.2.35-.3.75-.25.95-.25 1.95v1.15q-.3.55-.45 1.1-.1.6-.05 1.2v.75l-.2.4q-.45 1.3-.35 2.7.05.75.05 1.55-.4.5-.45 1.15-.05.6-.05 1.15v.8q-.1.2-.15.35-.45 1.35-.8 2.7-.2.75-.1 1.55-.2.4-.35.8-.1.35-.15.75v.8l-1.2 3q-.4 1.15-.35 2.35-.85 2.7-1.8 5.4-.9 2.6-1.3 5.4-1.2 2.95-1.95 6.1-.8 3.3-1.25 6.65-.2.4-.3.8-.15.55-.2 1.15v.75q-.15.2-.2.4-.4 1.55-.9 3.05-.4 1.3-.45 2.7-1 1.8-1.3 3.85-.2 1.55-.25 3.1-.05.2-.15.4-.6 1.45-.75 3.1-.15 1.15-.15 2.3-.9 1.45-.95 3.1-.05.95-.05 1.9-.2.4-.3.8-.15.55-.2 1.15-.05.4-.05.75-.15.4-.25.8-.25.95-.25 1.9v1.15q-.75 2.05-1.3 4.2-.55 2.3-.75 4.7-.2.4-.3.8-.25.9-.2 1.9v1.15q-.2.4-.35.8-.1.35-.15.75v.75q-.8 1.8-.85 3.85-.05 1.75-.2 3.5-.2.4-.3.8-.15.55-.2 1.1v.8q-.45.5-.55 1.15-.05.55 0 1.15v.8q-.1.15-.2.4-.3.9-.3 1.9v1.15q-.1.2-.15.4-.3 1.35-.75 2.7-.2.75-.1 1.55-.6 1.45-.95 3.05-.2.95-.1 1.95-.2.35-.3.8-.15.55-.2 1.1v.8q-.1.2-.15.35-.6 1.65-.5 3.5.032.43.05.85l-.05.15q0 .6-.1 1.15-.04.438 0 .8-.007.093-.05.15-.1.15-.25.35-.05.4-.05.8 0 .55.15 1.1.15.45.4.8.3.2.55.3.75.15 1.55.25.1-.1.25-.15.2-.15.35-.25l.4-.4q.559-.2 1.15-.4.4.167.8.3.9.1 1.8.25.45.1.9.25.3.05.65.1 43.1.1 86.25.15H436q7.45-.05 14.9-.15l1-.1q.35-.05.65-.15.2-.1.4-.25l.5-.4q.1-.15.15-.35.1-.2.25-.4v-.75q-.018-.074-.05-.15 1.043-2.368 1-5-.05-3.7-.2-7.35 2.8-8.65 5.5-17.4 1-3.1 1.45-6.2 2.1-14.3 2.85-28.85 1.35-6 2.75-11.95 2.3-9.7 4.3-19.3 1.85-7.2 3.3-14.6 2.3-11.95 3.9-23.55-.05-.2-.2-.35-.2-.25-.35-.5-.1-.15-.1-.3.5-1.35.85-2.75.25-.9.2-1.9v-.05q.12-.01.2-.05.15-.1.25-.15.15-.15.35-.25.1-.15.25-.25.05-.15.15-.25.1-.15.15-.25.05-.15.1-.25.05-.15.05-.25v-.75q0-.1-.05-.25-.05-.1-.1-.25-.05-.1-.05-.25-.1-.1-.2-.25-.05-.1-.15-.25-.105-.07-.25-.15-.09-.382-.3-.75-.3-.15-.55-.3-.35-.2-.75-.25z" id="a"/><path fill="#000" stroke="none" d="M67.9 81q0 .75.3.75.35 0 .8-.75.2-.3.1-.5-.1-.25-.4-.25-.8 0-.8.75m-5.6-.75q-.55-.45-.85-.2-.25.2-.5 1.3-.35 1.85.05 2.25.55.55 1.05.3.5-.3.8-1.4.15-.6 0-1.25t-.55-1m16.3 3.25q3.25 1.3 2.05-1-.8-1.5-1.2-1.5-.4 0 .15.85.55.9-.7.4-.5-.2-.9-.1-.35.05-.35.3 0 .7.95 1.05m-6.7.4q.95-.4 1.1-2.15.2-2.25-.3-2.25-.8 0-1.65 1.35-.9 1.3-.65 2.05.55 1.45 1.5 1m-.95-4.2q.5-.45.4-1.15-.15-.65-.85-1.9l-1.35-2.25-2.4 3.1q-2.35 3.1-2.1 3.7.35.55.7.45.35-.15 1.8-1.4 3-2.6 3-.6 0 .5.2.5.15 0 .6-.45m3-3.65q.95-.55-.3-1.65-1.25-1.05-2.4-.65-.8.3-.85.6-.05.35.55 1.05.55.7.85.75.3 0 .7-.55.4-.6.5-.6.1 0 .15.6 0 .4.25.55.2.15.55-.1M47.45 78q.8.75 1.1.8.3.05.45-.6.25-1-.2-2.2-.25-.7-.55-.75-.3-.05-1 .5-.75.65-.7 1 0 .4.9 1.25m9.2 5.55q0 1.2 1.5.95 1.45-.25 1.75-1.5.4-1.4-.75-.95-1.1.45-1.8.45t-.7 1.05m-3.7-3.35q.75-.5-.6-1.9-1.4-1.5-.75-.75.6.85.5 1.4-.1.55-.75.15-.3-.2-.45-.05-.15.15-.1.55.1.4-.25.7-.3.25-.85.2-.55-.05-.8.1-.3.15-.15.4t-.3.4q-.45.1-1.2.05-1.9-.1-1.5-1 .15-.4.05-.7-.15-.25-.45-.25-.3 0-.75-.5t-.75-1.2q-.5-1.1-.55-1-.05.1.25 1.55.15.9.7 1.95.55 1 1.15 1.55 1.5 1.25 1.5 2 0 .35.7.65.75.35 1.75.45l3.05.4q.6.05-.25-1-.55-.65-.5-.9.05-.2.75-.2.5 0 .9.25.35.2.35.5t.25.55q.2.2.5.2.9 0 .7-.9-.25-.9-1.45-1.9-.65-.55-.85-1.05-.2-.45.15-.7m-3.65 2.75q.8-.9 1.2-.8.35.1-.2 1.05-.55.8-1.25.8-.3 0-.25-.3.1-.35.5-.75m8.5-13.85q-.5-.85-1.6-.85-.65 0-.7.3-.05.3.45 1.25.8 1.6 1.6.85.7-.7.25-1.55m-.4-1.5q0 .65.75.25.75-.45-.15-1.4-.95-.9-2.25-1-.55-.05-.95.25-.4.3-.4.8 0 1.2 1.5.75.6-.15 1.05-.05.45.1.45.4m-8.25-.5q0-.45-.2-.75-.25-.35-.55-.35-.9 0-.75 1.45.15 1.45 1.1 1.8.5.2.65.65.2.45 0 .95-.4 1.15-1.05 1.1-.6-.05-.95-1.25-.3-1.3-.4.8-.15 2.1.85 1.8.35-.15 1 .15.6.3 1.1.85.95 1.1 2.7 1.2 1.7.15 1.75-.85.1-.75 1.15.65.65.85.7 1.3 0 .4-.55.75-.5.35-.4.5.05.1.75.15 1.25 0 1.7-.75.45-.75 1.2-.75.25 0 .5.25.2.2.2.5t-.25.45q-.25.2-.65.1-.4-.05-.7.35-.3.45-.35 1.15-.1 1.55.3 1.6.4 0 1.75-1.55 1.45-1.65 1.35-3.75-.05-2.1-1.6-3.15-1.45-1.05-2.1-.75-.6.3-.2 1.85.35 1.6 1.2.75.8-.8 1.4-.75.6.05.6.9 0 .95-2.05.95-2.05-.05-2-1.35.1-1.15-.4-1.25-.5-.1-1.45.9-.55.55-.95.5-.4-.1-.95-.85-.55-.75-.95-.85-.35-.1-.9.4-.35.4-.6.45-.25.1-.25-.15 0-.6 1-1.5 1-.85 1.9-1.05.95-.15 2.05.65 1 .85 1 .15 0-.75-1.05-2.15t-1.15-3.1q0-1.4-.45-1.55-.45-.15-2.2.55-1.1.4-1.05.55 0 .2 1.25.55 1.3.4 1.65 1.95.4 1.5-.75 1.5-.35 0-.45-.2-.1-.25.1-.55.35-.5-.3-.8-.6-.25-1.75-.05-.55.1-.55-1.05m-7.5-8.6q1.1.7 1.65.7.55 0 .95-.7.2-.35-.25-.55-.45-.2-1.4-.2-1.2 0-1.4.15-.2.15.45.6m13.2 3.35q-.15-.45-.55-.75-.35-.35-.7-.35t-.45.2q-.1.2.1.5t-.05.75q-.3.45-.85.8-.95.6-.95.65 0 .05.95-.2.5-.2.9-.05.4.1.4.45t.35.45q.3.1.75-.1.5-.15.8-.05.35.1.35.4 0 .35.25.4.2.1.5-.1.85-.5.7-1.15-.1-.7-1-.7-1.05 0-1.5-1.15M52.9 55.1q-.3-.2-.5-.1-.25.1-.25.45 0 .8.75.8t.75-.35q0-.35-.75-.8m6.75-1q-.3-.05-.4-.4-.05-.3.15-.65.4-.75-.4-.25-.35.25-.5.6-.15.35.05.65.2.25.05.5-.15.2-.55.2-.85 0 .35 1.35 1.25 1.35 1.25 2.3 0 .35.25.5.2.15.5-.05.7-.4.35-2.45-.3-2.05-1.1-2.3m-3.15 1.1q1-1 .65-1.6-.3-.6-1.6-.1-1.15.4-.65 1.65.3.85.55.85.25 0 1.05-.8m3.55-4.8q-.4-.4-1.35.5-.55.55-.45.65.05.05.85-.25.55-.2.85-.45.25-.3.1-.45m14.6 23.1q0 .7 1.1.25.5-.15.7-.5.2-.35 0-.6-.35-.6-1.1-.25-.7.35-.7 1.1m-7.3 0q.45-.35 1.15-.35.85.05 1.05-.15.2-.15-.2-.65-.7-.9-.25-2.15.45-1.2-.85-1.2-1.25 0-.8 1.2.45 1.15-1.1 1.6-1.5.35-1.05 1.8.45 1.4-.75 1.4-1.15 0-1.15.7 0 .3.35.4.3.1.75-.1.65-.2.8 0 .15.2-.1.95-.3 1-.25 1 .05.05.7-.95.95-1.5 1.1-2.65.1-.5.6-.85M62.25 57q.45.75.8.75.35 0 .35-.75t-.8-.75q-.35 0-.45.25-.1.2.1.5m2.25-5.25q.4-.65-.95-.5-1.35.2-2.1.85-.35.3-.5.9-.15.6 0 1.15.35 1.2.65 1.25.35 0 2.65-1 1.55-.65 1.75-.95.25-.3-.55-.6-.55-.25-.8-.55-.3-.35-.15-.55m15 10q-.1-.45-.4-.65-.8-.5-.7 1.75.1 2.2.9 3 .8.8 1.45.85.65.05.65-.7t-.8-.75q-.35 0-.45-.2-.1-.25.1-.55.2-.3.1-.5-.15-.25-.5-.25t-.5-.3q-.15-.35.05-.8.2-.45.1-.9m-56.7 22.3q-1 .65-.15.7 1.05 0 1.4-.9.35-.9-.45-1.6-1-1-.35.15.55.95-.45 1.65M4.5 81.8q-.2.3-.1.5t.4.2q.7 0 1.55-1.4.5-.95.25-1.1-.2-.15-1.55.1-.8.15-1.15.35-.35.25.05.35.4.1.55.45.15.3 0 .55m-1.9-2.45q.05-1.5-.9-1.15-.95.3-.95 1T.2 80.7q-.45.8-.05 1.3.2.2.65.1t.85-.45q.95-.8.95-2.3M.4 76.1q0 1.05 1.1.65.5-.15.7-.45.2-.35 0-.65-.5-.8-1.15-.6Q.4 75.2.4 76.1m16.85 7.6q-1.1-.35-1.1.3 0 .3.35.55.3.2.75.2 1.15 0 1.15-.3t-1.15-.75m2.05-2.3q-.3.25.7 1.35.4.45.9.65.45.2.7.05.25-.15.05-.55-.25-.4-.8-.8-1.25-.95-1.55-.7m-6.55 2.55q.2.35.55.45.35.1.65-.1.7-.4.25-1.1-.4-.7-1.4-.7-.95 0-2.55-2.05-1.4-1.95-1.95-1.5-.55.45.45 2.75 1 2.25 2.25 1.9.5-.2 1.05-.05.5.1.7.4m-.1-6.6q-.95.05-1 .1 0 .1.95.3.8.25.95.5.1.3-.45.9-.9 1.05-1.75.55-.35-.25-.3 0 .05.2.45.7.7.85 2.15 1 1.45.15 1.25-.7-.4-2.05-.9-2.7-.45-.7-1.35-.65m4.25 2.15q-.3 0-.5.45-.25.45-.25 1.1 0 .65.25.95.2.3.5.1.75-.45.75-1.55 0-.45-.2-.75-.25-.3-.55-.3m2.3-2.8q-.9.7.05 2.05.85 1.3.3-.4-.25-.85 0-.75.3.1 1.25 1.3 1.45 1.75 1.9 2 .4.2-.1-1.05-.35-1.1.3-1.1 1 0 .65-.7-.35-.65-1.75-1.3-1.7-.8-2.6-.05m-.95-3.6q-.65-1.4-1.35-1.8-.75-.4-.75.7 0 .3.25.55.2.2.5.2t.55.35q.2.3.2.75 0 1.15.7 1.15.75 0-.1-1.9m-3.4-.1q-.2.25-.05.6.15.35.6.65 1.05.65 1.4.3.35-.35-.5-1.2-.35-.35-.8-.45-.4-.1-.65.1m-2.35.45q-1.65.85-2.35.4-.3-.2-.4 0-.1.2.1.7.45 1.2-1.15 1.2-.7 0-1.05.2-.35.2-.15.5.35.55 1.55.3 1.2-.3 2.35-1.15.85-.65 1.35.1.45.8 1.35.8.85 0 0-.85-.35-.35-.45-.9-.15-.6.05-1.05.25-.7.05-.75-.25-.05-1.25.5m6.3-8.6q-.4-.35-.9-.35-.7 0-.75.2-.05.25.5.9.9 1.15 1.2 1.15.3 0 .3-1.15 0-.45-.35-.75M4 70.8q-1.55-.8-1.85-.65-.25.15-.25 1.75 0 1.4.3 1.75.25.3 1.2.05.85-.2 1.2.05.3.3.3 1.3 0 1.75.5 1.15.55-.55.6-2.4.05-1.95-2-3m-2.65-3.3Q1 66 .7 66q-.3 0-.3 1.5 0 .6.2 1.05.2.45.45.45.7 0 .3-1.5m4.8-3.3q.35.9.95 1 .65.1 1.1-.65.2-.25-.1-.55-.3-.3-.9-.45-1.5-.45-1.05.65M1.9 60q-.65 0-.75 1-.05.95.45 2.35.2.5.7.8.45.3.95.2 1.15-.2 1.45-1.15.25-.95-.85-.95-.5 0-.85-.35-.35-.3-.35-.8 0-.45-.2-.75Q2.2 60 1.9 60m2.85-4.05q-.8.45.25 1.1 1 .65 1.15.6.15-.05-.25-1.05-.15-.45-.5-.65t-.65 0m-1.85.4q-.25-.35-.05 1.2.05.6.35 1.05.3.4.7.4.55 0 .55-.25.05-.25-.5-.95L2.9 56.35m10.45 4.35q-.3-1.15-1-1.35-.7-.2-2.65.35-1.1.25-1.2.8-.1.55.45 2.6.5 1.95.4 2.6-.1.65-.9 1.15-.55.3-.95.75-.35.45-.35.75 0 .85 1.05-.05.6-.5.95-.5t.65.5q.6.9-.35.35-.55-.35-.65-.1-.1.25.2 1.2.55 1.65-.45 1.4-1-.3-1.75-2Q6 67.5 5.45 67.5q-.7 0-.5.8.15.8 1.1 1.75 1.15 1.15 1.05 2.1-.15.85-.05 1.95.05.4.3.55.25.15.6-.05t.45-.7q.1-.45-.1-.9-.2-.65.05-.75.2-.15 1.05.1 1.5.5 1.5-.7 0-1 .7-1.1.65-.15.95.8.1.4.5.5.35.1.75-.15.5-.35.3-.85-.25-.5-1.25-1.5-1.2-1.1-1.3-1.45-.1-.35.7-.6 1.45-.4 2.2.05.75.45.4 1.5-.2.7-.05.65.2-.05.85-.9 1.35-1.65 1.05-2.05-.35-.4-2.8-.2-2.05.2-2.55-.05-.45-.2-.45-1.45 0-.8.4-1.4.35-.6 1-.8 1.45-.45 1.05-1.95m-1.35.05q.2.3 0 .55-.2.2-.7.2-.5 0-.8-.2-.35-.25-.35-.55 0-.75.7-.75t1.15.75m-.8-2.45q.1.1.75.15 1.4 0 1-.4-.5-.5-1.45-.05-.45.15-.3.3m4.2-4.55q1.3-1.5 1.35-1.8.05-.3-1-.1-1.4.25-2.8 1.95t-.9 2.5q.25.35.5.4.3.05.5-.2l2.35-2.75m24.55 20q-.25-.25-.55-.25-.3 0-.5.25-.25.2-.25.5t.25.55q.2.2.5.2t.55-.2q.2-.25.2-.55 0-.3-.2-.5M30.4 66.3q0 .5.25.85.2.35.5.35t.55-.2q.2-.25.2-.5 0-.75-.75-1.2-.3-.2-.5.05-.25.2-.25.65M26.35 73q-.4-.55-.9-.05-.45.45.15 1.4.35.55.55.55.15 0 .35-.55.25-.8-.15-1.35m3.2-5.95q-.7-.4-1.4.45-.75.9-.3 1.6.3.55 1.45.15 1.1-.4 1.1-1.05 0-.6-.85-1.15m-8.15-12.3q0-.3-.2-.5-.25-.25-.55-.25-.75 0-.75-.7 0-.25.45-.35.5-.1 1.15.1 1.6.45 1.1-.45-.7-1.05-2.1-.8-1.4.3-2.6 1.7-1.05 1.2-1.1 1.65-.05.4.75 1 1 .8.15.35-1.1-.5-.6.7.45 1.2-1.05 1.7-.95.3-1.1.8-.2.5.1 1.95.35 1.55.15 1.85-.15.3-1.25.05-1.55-.4-1.55.45 0 .4.55.7.55.3 1.3.35.8.1 1.35-.1.55-.15.55-.45 0-.75 1.2-.75 1.25 0 .8-1.5-.15-.65 0-1.1.15-.45.5-.5 1.15-.1 2.15.15 1.05.2 1.35.7.15.25.55.1t.8-.6q.6-.65.45-.95-.1-.35-1.2-.85-1.2-.5-1.1-.55.05-.05 1.6.15l2.25.3-2.05-1.75q-2.05-1.8-2.05-2.6m-.95 1.6q.15.75 0 1.5-.2 1.3-.35 1.25-.15-.05-.85-1.65-.7-1.75-.5-2.45.25-.7 1.2.25.35.35.5 1.1m-3.8 4.15q-.2.2-.1.65T17 62q.85 1 .05 1-.75 0-1.2-1.2-.5-1.25-.4-1.5.05-.3.8-.3.8 0 .4.5m9-5.3q0-.45-.3-.65t-.7-.05q-1 .45-1 1.05 0 .7 1 .7.4 0 .7-.3.3-.35.3-.75m11.5-1.95q0-1.3-.3-1.65-.25-.3-1.2-.1-1.15.3-1.45 1.05-.3.7.7.7.3 0 .55.45.2.4.2 1t.25 1.1q.3.55.7.65.9.4-.75 1.65-.7.5-1.25 1.25-.5.7-.55 1.25-.1 1.25-.65-.6-.5-1.75-.4-3.75.15-1.75-.15-.95-.45 1.25-.95.9-.5-.4-.35-1.85.15-1.45-1.35-3-1.55-1.55-1.95-.3-.1.35.3.9.35.55 1 1 1.3.9 1.15 1.8-.2.95-1.55.45-1.1-.45-.85.85.25 1.3-1.3 1.3-.85 0-1.15.45-.25.4-.2 1.65.15 2.05-.9 2.05-.95 0-1.1.65-.1.65.7 1.15.25.2.55.05.3-.15.45-.55.35-.9 2 .55.95.85 1.4.95.45.1.8-.45.65-.95 1.3-.8.75.1 1.05-.05l2.6-.4q2.15-.15.95.15-.55.15-.9.6-.4.4-.4.85 0 .5.25.65.25.2.6-.05.4-.2.5-.1.15.15-.05.6-.15.45-.5.7-.35.3-.7.2-.35-.1-.6.2-.25.25-.25.75 0 .45-.35.95-.3.45-.8.6-.45.2-.65.5-.2.35-.05.6.2.3-.15.5t-1 .2q-1 0-1.3.4-.25.4-.1 1.7.15 1.5-.8 3.1-.95 1.55-2 1.55-.25 0-.25-.15t.2-.35q.4-.5-1-1.55-1.1-.75-1.5-2.5-.4-1.8.65-1.15.65.4 1.4-.55.8-.95 1.05-2.4.3-1.5-.8-1.25-1.05.2-1.65-.75-.25-.4-.55-.5-.35-.1-.55.1-.2.2.15.75.4.6 1.1 1.2.75.6 1.15 1.15.4.55.2.75-.4.45-2.2-.5-1.85-1-1.95-1.7-.25-1.05-.7-2.15-.35-.85-.25-1 .1-.15.75.2.7.4.7.3 0-.1-.7-.95-1-1.25-1.35-1-.5.5-.5 5.35-.05 4.9.45 4.9.25 0 .35-.2.05-.25-.15-.55-.2-.3.05-.5.2-.25.7-.25 1.2 0 .85.6-.15.25.5 1.25t1.7 2.15q2.3 2.45 2.45 3 .15.5-1.4.5-.65 0-.95.25-.35.2-.15.5.2.3.75.55.6.2 1.2.2t1.2.35q.55.3.7.75.45 1.15 1.1 1.15.6 0 .25-1.1-.4-1.05.95-.7.55.15 1.45-.2.9-.35 1.6-1 1.7-1.5 1.7-.85 0 .7-2.25 2.6-2.25 1.9-2.25 2.15t2.35.45q1.45.1 1.75-.05.3-.15-.25-.85-.55-.65-.35-.95.2-.3 1.35-.55.8-.2 1.35-.7.55-.45.55-.9 0-.5.5-.8.45-.3 1.2-.3.7 0 .95.15.3.2-.05.4-1 .75-.9 2.7.1 1.95 1.15 2.15 1.2.25 1.5-.3.25-.5 1.2-.15 1.25.5 1.4-.9.2-1.35-.95-2.7-1.4-1.7-1.5-.85 0 .9 1.25 2.15.9.85.85 1.05-.05.15-1.05-.05-1.8-.35-1.75-3.9 0-3.5 1.85-3.5.45 0 .8-.3.3-.25.35-.65.05-.55.15-.55.1 0 .3.55.3.8 1.05.9.7.15.7-.65t-1.3-1.1q-1.3-.35-2.05.25-.4.35-.85.4-.45.05-.7-.2-.25-.25-.3-.15-.1.05.1.35.25.5-.9 1.95-1.2 1.4-2 1.5-.45.1-1.1-.95-.35-.55-.5-.55-.15-.05-.15.5 0 1.2-1.1.9-1.05-.3-1.4-1.6-.25-.95-.55-1.1-.3-.15-.95.35-.4.35-.85.5-.45.1-.65-.1-.5-.5-.5.9t-.85.55q-.8-.8-.3-1.65.55-.8 1.9-.8.55 0 1.15-.25.6-.25.8-.6.5-.8 1.2.4.25.5.7.7.4.25.7.1.6-.4.7-1.15.05-.7-.55-.6-.55.1-1.35-.1-.6-.15-2.55-.25-.75-.05-1.35-.45-.65-.35-.75-.8-.2-.75-.15-.75.1 0 .65.75t.85.75q.25 0 .9-.75.75-.95 2.6-2.1 1.15-.6 1.4-.5.3.1.3 1.1 0 1.15 1 1.45 1.05.3 1.4-.75.1-.35.6-.15.5.2 1.15.8 1.25 1.15 2.3 1.05 1.05-.1 1.05-1.35 0-.8-.65-1-.6-.2-3.25-.25-.8 0-1.55-.3-.7-.35-.85-.75-.2-.4-.65-.7-.45-.3-.9-.3-1.4 0-1.1-.8.25-.75 1.8-1.15.8-.2 1.35-.6.55-.45.55-.85 0-.4.65-.75.7-.4 1.6-.5 1.65-.25 2.15.2.55.4-.85.9-.75.3.4.15.5-.1.9 0 .4.15.4.4 0 .7-1.2 1-1.15.35-2.4 0-1.4-.4-1.9.8-.45 1.2.85 1.3 1.9.15 3.15.6 1.9.75 3.2.1 1.3-.7-.35-1.6-.4-.25-.7-1.05-.3-.8-.25-1.7.15-2.35.35-2.8.15-.4.8 0 .85.55-.1 1.1-.9.55.8 1.5 1.1.6 1.3.55.25-.05-.05-.8-.4-1.15.85-1.45.7-.15.45-.5-.25-.35-1.6-1.05-2.2-1.15-2.65-1.15-.45.05-.7 1.3-.15.9-.55 1-.4.15-1.55-.35-.8-.3-1.1-.6-.25-.35.15-.5 1.55-.55.8-1.05-.75-.55-2.85-.35-1.2.1-2.1-.05-.9-.15-.9-.45 0-.3.55-.35.55-.1 1.4.1 1.95.55 1.45-.3-.2-.3-.15-.5.1-.25.45-.25 1.05 0 .75-.75-.3-.75-1.45-1.15-1.5-.45-1.5-2.6m-6.75 4.6q0-1 .5-.55.5.45.7 1.6.2 1.1-.05 1.1-.4 0-.75-.7-.4-.7-.4-1.45m.7 3q.55.45.35.7-.3.65-.55.65l-1.8-.9q-1.9-.85-1.65-1.35.2-.5 2.2.15.95.35 1.45.75m-.7 18.1q0-.85 1.5-.75 1.25.1 1.45.6.2.5-.8 1.15-.95.5-3 .75-1.65.2-1.85-.3-.15-.45.4-3.15.1-.4 1.2 1.05.45.6.8.8.3.2.3-.15m-9.85-30.6q-.15-.15-1.4.15-2.4.6-1 2 1.25 1.25 2.05-.7.5-1.25.35-1.45m17.2-1.4q-.2-.35-.55-.4-.35-.05-.6.2t0 .75q.25.5.85.9.55.4 1.2.6.65.15 1-.05.8-.45-.3-.85-1.05-.35-1.6-1.15m-12.9 2.15q.4-1.85-.4-1.85t-.8.65q0 .25-.45.6-.45.3-1.05.45-.6.15-1.05.55-.45.35-.45.7 0 .8 1.5.05.95-.55 1.2-.4.3.15.3 1.1 0 .65.35 1.1.3.45.75.45.5 0 .8-.2.35-.25.35-.55 0-.3-.2-.5-.25-.25-.55-.25-.35 0-.45-.55-.05-.55.15-1.35m-13.1-15.35q-.4 0-.65.25-.25.3-.25.7-.1.8-.85-1.15-.7-2.05-1.35-2.05-.85 0-.55-1.9.3-1.85 1.2-2.05.8-.15.75-.3 0-.1-.9-.45-1.4-.55-2.05 1.1-.6 1.7.45 3.3.7 1.1.65 1.3-.1.2-1.1-.05-.6-.15-1 0-.45.1-.45.45 0 .75 1.85 1.3.8.2 1.35.5.55.35.55.6 0 .8.75.65.7-.15 1.5-1.1.95-1.1.1-1.1M9.2 24q-.95 0-1.05.2-.1.25.5.9.35.5 1.1.8.7.35 1.3.35.95 0 1.05-.2.1-.25-.45-.95-.35-.45-1.1-.75Q9.85 24 9.2 24m54.6 24.05q.5.8.8.65.3-.15.3-1.15 0-.45-.2-.65-.25-.25-.55-.05-.75.5-.35 1.2m-1.15 1.1q-.9-1.05-.45-1.85.4-.65-.3-1.2-.65-.4-.75 1.3-.15 1.7.5 2.35.75.75 1.2.45.5-.25-.2-1.05M69.2 33.7q.25 0-.2-.7-.45-.75-1.35-.75-.9 0 .25.75 1.1.7 1.3.7M56.6 47.2q.65.65 1.35 1 .7.35 1 .15.3-.2-.05-.75-.35-.6-1.15-1.25-1.85-1.45-2.3-1.1-.45.35 1.15 1.95m3.6-4q-1.3-.45-1.3-.1l-.45 1.65q-.3.85-.2.9.05.05.55-.65.75-1.1.85-.5 0 .65 1.1-.25 1.15-.95 1.15-.1 0 .35.45.6.4.25 1 .25 1.5 0 1.05-1.15-.45-1.1-1.55-1.1-.45 0-1.2-.5t-1.3-1.2Q59 39.4 58.9 40.4q0 1.05 1.3 2.15.95.75.95.85 0 .1-.95-.2m-17.85 2.55q-.35 0-.45.25-.1.2.1.5.45.75.8.75.35 0 .35-.75t-.8-.75m3.05.35q-.3-.2-.5-.1-.25.1-.25.45 0 .8.75.8t.75-.35q0-.35-.75-.8m6.95-13.5q-.3.3-.45.75-.45 1.05.65.65.9-.35 1.05-1.05.2-.7-.65-.7-.25 0-.6.35M81.9 82.7q.35.55 1.4.55 1.05-.05 1.4-.7.2-.25-.2-.4-.45-.2-1.15-.15-.75.05-1.15.25-.45.2-.3.45m7.8-2.8q-.25-.15-.4.25-.2.4-.15 1.15.05.75.25 1.2.2.4.45.25.55-.4.55-1.4-.05-1.1-.7-1.45m-6.8-6.95q-.75-.55-1.8-.95-1.4-.55-1.9-1-.45-.55-.25-1.2.3-.8.15-.8-.1-.05-.95.65-.8.65-1.05.65-.2-.05-.2-.9 0-.5-.2-.75-.25-.25-.55-.05-.3.2-.5.1-.25-.1-.25-.4 0-.8.6-.8.25 0 .45-.3.2-.35.2-.75 0-.45-.25-.65-.3-.2-.7-.05-.4.15-.8 0-.4-.1-.6-.45-.45-.8-1.35-.8-.5 0-.5.2 0 .15.5.65.85.85.15 2.25-.75 1.4-2.05 1.45-1.2.1-.4.4.9.35 2.45-.45 1.55-.8 1.55-.05 0 .35-.2.55-.25.25-.55.25-.3 0-.5.45-.25.4-.25 1.05 0 1.35.75 1.45.75.15 1.25-1.15.3-.75.7-.6.45.1 1.55 1.3 1.7 1.95 2.95 1.45 1.3-.45.9.6-.3.95-1.95 1.3-1.65.3-1.65-.55 0-.8-.8-.8-.35 0-.45.45-.1.4.1 1.05.3.85.1 1.2-.25.3-1.1.3-.65 0-1.2.25-.6.2-.8.5-.5.8 1.3.35 1.8-.45 2.75.65.55.65.5.85 0 .2-.55.2-2.3-.1-2.9.2-.55.35 0 1.4.75 1.4.2 2-.25.25-.1.25t.5-.2q.4-.25.65-.85.3-.6.3-1.25 0-1.55 1-1.1 1.05.4 1.85-.45.75-.8.35-1.85-.25-.65 0-.8.3-.15 1.35.1 1.6.4.9.05-.55-.2-.55-.65-.05-.45.4-1.3.55-1.05 1.05-1.1.5 0 .5 1 0 .55.75 1.5.7.85-.7 1.65-1.4.8-1.95.3-.2-.2-.3-.1-.15.1-.15.45 0 1.1.95 1.4.95.25 1.65-.65.55-.8.9-.7.3.05 1 1.15 1.05 1.6.9 2.2-.2.6.55.5.8-.05 1.15-.7.2-.35 0-.65-.2-.35-.7-.55-.5-.2-.8-.65-.35-.5-.35-.95 0-1.1 1.1-.7 1.15.4 1.15-.65 0-1.5-2.75-1.2-1.05.15-1.3-.6-.3-.7.65-1.1.5-.15.8-.5.35-.35.35-.65 0-.7-1.15-.35-1.1.45-1.1-.25 0-.25-.75-.75m.3-3.9q.2-.25-.05-.6-.2-.3-.7-.5-2.75-1.1-2.1.65.4.95 1.35 1.1 1 .15 1.5-.65m-1.15-7.35q-1-.05-.95.15.05.2 1.3 1.15 2.05 1.6 2.35 3.6.35 2-1.15 3.55l-1.6 1.7 1.55.5q1.55.45 2.35 0 .7-.45 1.55.05.85.5-.15 1.15-.6.4-.45.8.15.45 1.15 1.4.7.65 1.05 1.3.4.7.2 1-.2.25-.1.5.1.2.4.2.9 0 1.15-.75.3-.7-.5-1.05-.55-.25-.55-.45t.55-.45q.5-.2.4-.75-.1-.5-.8-1.65-1.2-1.9-.5-1.5.85.5 1.9-.2.65-.4.55-.55-.1-.15-1-.15-1.05-.05-1-.25.05-.25 1.3-1.3 1.75-1.45.65-1.45-.5 0-.95.35-.45.35-.65.85-.45 1.2-1.7.7-.55-.2-1.05-.05-.6.15-.8.55-.6.95-1 .45-.4-.45.05-1.6.2-.55.55-.75.35-.2.7 0 .8.45.3-.8t-.5-2.3q0-.4-.55-.9-.6-.55-1.4-.9-.75-.35-1.25-.8-.45-.4-.3-.65.15-.25-.15-.45-.35-.2-.95-.25M82 56.25q-.55 0-.95-.3-.4-.35-.4-.8 0-1.1-1.15-.7-.45.2-.75.1-.35-.15-.35-.5t.35-.55q.3-.25.75-.25.5 0 .8-.25.35-.25.35-.65 0-.8-.5-.4-.2.2-.75.1-.55-.05-1.1-.35-.95-.5-1.2.05-.2.55-.2 3.65v4.5l3-.3q3-.3 2.6.4-.2.3-.1.55.1.2.45.2.8 0 .75-.65 0-.6-.85-1.45-.9-.9-.05-.9.8 0 1.35 1.55.2.65.45.95.25.35.45.15.6-.6-.65-2.35-1.25-1.8-2.3-1.8m-1.7 2.2q-.7.6-1.05.45-.35-.15-.75-1.25-.65-1.7-.35-1.95.25-.25 1.7.75 1.05.7 1.15 1.05.05.35-.7.95m2.2-6.25q.2.3-.15.3-.85 0-.75 1.5.1 1.5.65 1.45.5-.1.9-1.65.55-1.85.35-2.3-.15-.4-1.55-.75-1.25-.3-1.25-.2-.05.05 1 .85.6.45.8.8M93.2 54q-.75.45-1.6 1.25-1.15 1.05-1.8 1.3-.65.25-1.1-.2-.5-.5-.35-.9.15-.45.95-1.05.85-.65.95-.9.05-.25-.6-.35-1.2-.1-1.8.05-.6.1-1.6-.75-.55-.45-.95-.35-.4.1-.75.9-.6 1.15-.05 3.05.5 1.9 1.3 1.4.25-.2.4.25.15.4.05 1.2-.25 1.9 1.2 2.85 1.45 1.05 1.05 2.75-.15.75.05 1.45.15.7.55.95 1 .65 1.2.5.2-.2-.15-1.5-.3-1.1-.15-1.15.15-.05 1.25.95 1.15 1.05 1.3.85.2-.25.05-2.45-.15-2.9.4-4.25.55-1.25.05-2.1-.2-.3-.1-.5.1-.25.5-.25.5 0 .5-.2 0-.25-.5-.85t-.45-.9q0-.3.55-.5 1-.35.55-.8-.15-.2-.9.25m-.55 4.55q0 .25-.2.5-.25.2-.5.2-.65 0-1.2-.8-.5-.8-.1-1.2.4-.4 1.2.1.8.55.8 1.2m-6-3.8q0 .75-.35.75t-.8-.75q-.2-.3-.1-.5.1-.25.45-.25.8 0 .8.75m2.6 3.25q.4.2.4.5 0 .7-.2.7-.25 0-1.3-.7-.7-.5-.7-.6.05-.15.9-.15.55 0 .9.25m-.3 3.75q-1.3-1.8-1-2.05.8-.45 1.75.4 1 .85 1.05 2.1l.1 1.55q-.55-.15-1.9-2m4.6-14.2q-.6-2-1-2.25-.75-.45-.65 1.05.1 1.45.9 2.25l1 .9q.35 0-.25-1.95m-8.8-3.3q-1.1.9-1.1 1.95 0 1.05-.55.95-2.95-.45-2.5 1 .5 1.4 3.6 2.3 3.65 1 4.3.6.35-.15.15-.35-.2-.2-.75-.3-1.4-.3-.5-1.25.35-.4 1-.6.7-.2 1.3 0 1.45.35 1.05-.7-.2-.45-.7-.75-.5-.25-1-.2-1.5.15-2.65.75-1.2.6-.9 1.05.2.3-1.05.35-1.25.05-2.1-.25-.25-.1 1.4-1.65.85-.85 1.35-1 .45-.15.8.35.55.9 1.05.05.2-.35.15-.55-.1-.25-.4-.25-.35 0-.55-.35-.25-.35-.25-.9 0-.75-.2-.8-.25-.05-.95.55m-.35-2.45q0 .7 1.1.7 1.05 0 1.05-.4 0-.35-1.05-2.4-.95-1.85-1.7-2.1-.7-.25-1.05 1.2-.35 1.3 0 2.2.3.95.95.55.7-.35.7.25m3.25-2.55q-.25.1-.25.45 0 .8.75.8t.75-.35q0-.35-.75-.8-.3-.2-.5-.1m3.25-4Q90.8 33 90.65 33q-.55 0-1.45 1.35-.85 1.35-.6 1.8.5.75 1.1-.25.4-.6.55-.55.1.05.15.85 0 1.3.35 1.3t.15-2.25m-2.4-5.95q-1.1.35-1.5 1.5l-.5 1.55-3.4-3.2.35 1.85q.15.75.65 1.4.55.65 1.1.8 1.3.35 1.4 1.05.15.75-1.1.75-.45 0-.75-.2-.35-.2-.35-.45 0-.6-.85-.6-.35 0-.45.3-.15.3.05.75.15.45 0 .9t-.5.6q-.9.45.8 0 1.7-.4 1.7.75 0 1.55 1.35 1.2 1.3-.3 1.45-1.9l.4-3.75q.2-1.85.75-1.85t.55-.75q0-1.05-1.15-.7m7.05 7.05q.2-1-1.4-1.85-3.15-1.65-2.4 1.95.25 1.2.05 1.55-.15.3-.85.05-1.35-.5-1.55.05-.2.6.75 2.15.75 1.1.8 1.65.05.55-.55 1.05-.55.55-.8.55t-.5-.55q-.35-.95-1.05-.95-.3 0-.35.25-.05.3.2.7.6.95.4 2.4-.1.9.35.65.4-.2 1.8-1.75.95-1.05 1.55-1.6.6-.55.35-.2-.2.4 0 .9.15.5.6.85.4.35.9 1.4.5 1.1.7 2.25.4 1.95.6 2.1.15.1.55-1.2.7-2.3.6-4.05-.05-1.75-.85-1.7-.95.1-.95-.65 0-.3.35-.5.3-.25.8-.25 1.1 0 1.35-2.05.1-.85-.05-1.45-.15-.6-.5-.6t-.55.4q-.25.4-.25.95 0 .55-.3 1-.25.4-.65.4-1.05.1-2.45.6-1.45.5.95-1.6 2.15-1.85 2.35-2.9m-1.6-.35q.35.55.45 1.1.05.55-.2.7-.25.2-.6-.15-.3-.4-.45-1.05-.45-1.65-.25-1.8.2-.15 1.05 1.2m-.55-16.5q-.75 0-1.15.8-.4.75 0 1.45.55.9 1.1.7.5-.25.6-1.45.1-1.5-.55-1.5m-3 4.1q0 .5.4.8.35.3.9.3.6-.05.7-.15.1-.15-.35-.3-.4-.15-.55-.45-.15-.35.05-.65.2-.25.05-.45-.1-.2-.4-.2-.35 0-.55.35-.25.3-.25.75m-5-.95q-1.45.1-1.2 1.45.25 1.3 1.85 1.8.85.3 1 .6.1.25-.45.75-.9.9-1.25-.05-.35-.95-1.4-.95-1.05 0-1 .45.05.4 1.25 1.65 1.3 1.35 1.85.55.25-.35.45-.4.15 0 .15.35t.35.1q.35-.2.8-.8 1.1-1.5 1.1-.45 0 1 .45.55.25-.2.05-.7-.15-.5-.6-1.05-.6-.7-.65-1.05 0-.35.55-.5.4-.15.65-.9.3-.75.3-1.65 0-2.2.75-1.8.3.2.55 0 .2-.15.2-.6 0-1.4-1.05-1.45-1.05 0-1.7 1.4-.35.75-.4 1.15-.05.4.2.2.3-.15.5.2t.2 1.05q0 .95-.2 1.1-.25.2-.8-.3-.9-.8-2.5-.7m.75 1.6q.1-.25.45-.25.8 0 .8.75t-.35.75q-.35 0-.8-.75-.2-.3-.1-.5m5.2-21.5q.15-.4-.05-.7-.2-.3-.6-.3-.85 0-1 .45-.2.4.45 1.05.55.5.7.45.15-.1.5-.95m8.25 2.4q-.65-.55-.8-.55-.15-.05.1.45.25.4.2.65-.05.3-.4.3-.3 0-.8-.5-.45-.45-.8-1.1-.5-.95-.85-1.1-.3-.1-.75.5-.35.55-.4.4-.05-.15.2-1.1.3-1.1.15-1.35-.2-.3-1.05-.15-1.35.3-1.65 2.4-.2 1.75.6 3 .75 1.2 1.85.8 1.3-.5 3.15.45 1.8 1 1.8 2.25 0 .65.2 1t.45.15q.65-.35.3-1.9-.35-1.5-1.05-1.5-.65 0-.65-.8 0-.35.25-.45.2-.1.5.1.95.6.7-.25-.25-.9-1.25-1.7m-6.2-.45q.05-.95.15-.95.15 0 .65.9.3.55.8.8t.9.1q.4-.15 1 .1.6.2.95.7 1 1.15.15 1.15t-.85-.8q0-.75-.95-.65-1.55.2-2.15-.1-.65-.3-.65-1.25m8.25 11q.65-1.2.7-2.1.05-.85-.5-.75-2.4.4-2.5-1.4-.05-.85-.15-.8-.1 0-.5.95-.6 1.5-.35 2.05.15.2-.2.3-.35.15-.95.1-1-.05-1.05-.4-.05-.35.65-1.7.55-1.15.6-1.75.05-.6-.45-1.1-1.1-1.05-1.55-.75-.4.3-.05 1.8.2.8.15 1.3-.1.55-.35.5-2.3-.45-2.75 1.35-.2.8-.3.7-.05-.05-.15-1 0-1.65.75-1.9t.3-1.5q-.45-1.2-1.45-1.6-1-.45-.65 1.25.25.95.15 1.1-.1.1-.6-.6-.8-1.15-.8-.5 0 .25-.35.05-.35-.15-.85-.65Q87.3 7.5 86.2 7.5q-.9 0-1-.3-.1-.25.4-1.5.25-.7.65-.75.4-.1 1.25.35.6.3.9.75.3.45.1.75-.2.25-.05.5.1.2.45.2.4 0 .5-.35.15-.3-.05-.8-.35-1.1.3-1.1.3 0-.1-.65T88.25 3Q86.55 1.15 85.1.85 83.65.5 83.65 1.9q0 .5-.2.7-.25.2-.55 0-.75-.4-.45-1.05.15-.2-.4-.4T80.55.9q-1.4-.05-1.65.15t.3.9q.55.7.45.8-.1.1-.95-.25-1.4-.45-2.75-1.6-1.3-1.15-1.75-.7-.4.4 1.4 1.65.75.5 1.5 1.35.65.8.9 1.5.5 1.7.9.75.15-.4.45-.55.3-.2.6 0t.5-.05q.2-.2.2-.7 0-.5.25-.8.2-.35.5-.35t.55.35q.2.3.2.75 0 1.15 1.7 1.15 1.75 0 .65.65-.6.35-.6.85-.05.45.4 1.35.9 1.65.8 2.55-.05.9-1-.35-1-1.25-1.4-.85-.45.35-.35-.6.15-3.6-.95-3.6-.3 0-.5.4-.25.4-.25.9-.1 1.2-.6.55-.55-.7-1.45-.8-1.6-.15-1.95-.35-.35-.25-.1-.95.2-.4-.05-1-.2-.6-.7-1-1.15-.9-1.15-.3-.1.6-.85-.45-.45-.65-.7-.7-.2 0-.45.5-.35.8-1.4.9-1.1.15-1.1-.6 0-.4-1.7-1.35-1.75-1-2.4-1-.3 0 .15 1.65l.45 1.65-1.8-1.7q-1.8-1.7-3.7-1.2-1.9.45-2.15 1.15-.05.3-.6.25-.55-.05-1.25-.45Q55.45.4 54.35.3 53.2.15 52 .8q-1.35.75-1.35-.05 0-.3-.9-.5Q48.9 0 47.65 0q-1.8 0-2.4.25-.6.25-.6 1.05 0 3.65 3.45 2.9 2.3-.5 3.35.3 1.05.75.1 2.2-.9 1.55-.6 1.55.45 0 1.6.5.7.25.9.15.15-.1-.15-.6-.25-.4.2-.3.45.15 1.3.7 1.45.95 2.95 1.45 1.55.5.85-.2-.4-.4.3-1.75.5-.9.25-1.1-.25-.2-1.75 0-2.2.25-2.6-.3-.15-.25.25-.4.35-.1 1.05-.05.65.05 1.8-.5 1.1-.5 1.95-1.25.8-.8 1.45-1.1.6-.3.6.1 0 .35-.2.65-.25.25-.55.25-.3 0-.5.25-.25.25-.25.6 0 .4.45.25.4-.15 1.05-.75.85-.8 1.2-.85.3-.05.35.55 0 .45.2.35.2-.15.5-.8.4-.95.55-.95.1-.05.15.8 0 .5.2.9.15.35.4.3.3-.05 2.45.05 1.3.1 1.2.25-.1.15-1.75.65-2.45.7-2.45 2 0 .8.15.85.1 0 .65-.7t.6-.7q.05.05-.2.9-.2.55-.05.9.15.4.5.4.5 0 .5.2t-.5.7q-.95.95-.95 2.45-.05 1.1-.2 1.05-.15 0-1-1.2-.5-.7-1.15-1.2-.65-.5-1.1-.5-.4 0-.7-.2-.3-.25-.3-.55 0-.3.35-.5.3-.25.75-.25.5 0 .8.25.35.2.35.5t.25.55q.2.2.5.2.9 0 .65-1.1Q64.55 9 63.3 7.5 62.2 6.1 62 6.1q-.15-.05.15 1.2.15.7.05 1.2-.1.5-.4.5-.25 0-.45-.2-.2-.25-.2-.55 0-.3-.25-.5-.25-.25-.6-.25-.8 0-.35 1.95.55 2.05-.05 3.4-.55 1.4-1.9 1.4-1.55 0-1.1-1.05.15-.45-.3-1.25-.4-.85-1.2-1.55-1-.95-1.3-1.05-.3-.1-.05.6.25.55.15.95-.1.35-.5.35-.8 0-.8-.75t-.8-.75q-.35 0-.45.15-.15.2.05.45.15.25-.05.45T51 11q-.85 0-1.1-.65-.2-.6-.05-2.6.1-1.6-.6-2.05-.25-.2-.45-.05-.25.2-.2.55.1 2.9-.6 3.4t-1.7-1.7q-.55-1.2-.5-1.45.1-.25.95.05 1.3.45-.75-1.35-.8-.75-1.5-1.7-.65-.95-.75-1.55-.15-.8-.75-1.15Q42.4.4 41.05.3q-1-.05-1.85.1-.8.1-.95.35-.35.55-3 0-1-.25-1.7-.25t-.5.25q.35.65-.4 1.1-.3.2-.5 0-.25-.2-.25-.7 0-1.1-1.1-1.15-1.05 0-2.2 1.1-.75.75-1 .75-.2-.05-.4-.9-.2-.95-.4-.9-.15 0-.55 1-.6 1.45.65 2.3.5.4.7.85.2.45-.05.65-.5.55 1.15-.3 1.7-.8 1.7-1.25 0-.15-.2-.15-.25 0-.55.2-.3.2-.5.1-.25-.05-.25-.35 0-2.4 3.25.25 1.3 1 1.5 1.45.15.4-.55.7-1.25.45-1.15 1.15.1.75 1.35.65.55-.05.95-.3.4-.25.4-.6 0-1.85.55-2.6.6-.75 2.5-1.3 2.4-.75 2.8-.65.45.15-.05 1.4Q40 4.55 38 4.3q-1.2-.1-1.65.2-.45.3-.6 1.35-.15 1.15.1 1.35.2.25 1.15-.05.65-.2 1.2-.1.55.05.75.4.55.75 1.6.3t.65-1.1q-.15-.25.1-.3.2-.1.65.1.5.2.85.6.35.35.35.7 0 .4.2.35.2-.05.45-.5.4-.65.7-.55.3.05.75.95.55 1 .3 1.2-.25.2-1.9.05l-3.5-.35q-1.05-.1-2.1-.85-.55-.4-.7-.2-.15.2-.05 1.15.1.7-.15 1.3-.25.6-.7.75-1.05.45-.6-.8.5-1.25-1.1-2.1-1-.5-1.2-.45-.2.05.1.85.3.8.1.85-.2.1-1.2-.45-1.55-.8-1.15-2.3.4-1.55-.5-1.15-.35.1-.55.45-.25.35-.15.7t-.25.6q-.35.25-.85.25-.85 0-.85.15t.9.8q1.05.8 1.2 3 .2 2.25-.6 5-.05.3-1.25-1.15-.8-1-.85-.9-.05.1.5 1.65.85 2.35.05 2.85-.85.5-2.7-1.25-.85-.8-1.35-1.5-.45-.7-.25-.9.2-.2.75.2t1.15 1.1l1.5 1.8-.25-1.85q-.15-1.5-.4-2.65-.3-1.2.05-1.45.3-.3 1.2.45.8.65.9.65.15 0-.25-.65-.55-1 .4-1.65.45-.25-.4-.35-.9-.1-2.65.1-1.7.15-3.05.5-1.35.3-1.55.65-.45.8-1.05-.1-.5-.85.45-1.55.95-.7 2.55-.7 1.35 0 2.65-.8.6-.4.4-.5-.2-.05-1.35.2-1.25.3-1.65.15-.4-.15-.4-.95Q22.9 6.6 24 7q1.2.45 1.15-.25-.1-.75-1.3-1.5-.75-.45-.8-.6-.05-.1.6 0 1 .2 1.25-.3.25-.45.25-2.4 0-1.1-.3-1.4-.3-.25-1.2-.05-1.35.4-1.45.8-.05.45 1.1 1.25.8.55.75.7Q24 3.4 23 3.4q-.65 0-1.05-.2-.35-.25-.3-.55.05-.35-.5-.65-.6-.25-1.45-.35-2.05-.25-2.05.65 0 .5-.2.5-.25 0-.85-.5-.65-.5-1.1-.35-.45.15-1.15 1.15-1 1.4-1.15 2.2-.2.85.6.4.25-.2.7.3.4.5.8 1.35.6 1.35.55 1.45-.05.15-.75-.8-1.1-1.4-1.9-.85-.8.55-.8 2.65 0 .9-.2 1.55-.25.65-.55.65-.9 0-.75 1.1.15 1.05 1.1 1.4.5.2.8.7.3.55.25 1.1-.05.95-.15.95-.05 0-.3-.95-.35-1.3-1-1.25-.7.05-1.45 1.4-.85 1.6-.65 1.95.2.35 1.6-.05 1.1-.3 1-.05-.1.25-1.6 1.55-2.1 1.95-1.15 1.45.55-.3.7-.15.15.15-.1.8-.45 1.2.8 1.65 1.8.6 2.8 1.7 1 1.05.65 1.95-.2.55-.5.75-.35.25-.65.05-.8-.5-2.2.1-1.45.65-1.45 1.45 0 .9 1.1 1.4 1.1.45 2.15.05.45-.15.9.1.45.3.65.85.25.55.15 1.05-.05.45-.4.55-.3.1-.4.45-.1.35.05.75.35 1-1.25 1.4-.65.2-1.05.5-.35.35-.15.6.15.25-.15.5-.3.2-.9.25-.6.05-1-.2-.45-.3-.45-.7 0-.4-.4-.85-.35-.4-.9-.65-.8-.3-.9-.2-.05.1.5.65 1.15 1.15.9 1.65-.2.5-1.35-.55-1-.9-1.25-.5-.25.35-.6 3.2-.5 4.05-.5 6.4.05 2.45.55 2.35 1.6-.25 1.95.65.35.95-.25 3.95 0 .45-.8-.95-.8-1.35-.35-2.05.2-.35-.15-.55-.3-.2-.95-.2-.95 0-1.2.35-.2.3.1 1.35.25.7 1 1.8.8 1.15 1.7 2 2.15 2.25 2.15 2.85 0 .25.4.45t.9.15q.95 0 .95-.15t-.95-.85q-1.1-.8-.85-1.4.25-.55 1.5-.05.45.2.75 0 .3-.25.3-.75 0-.45-.45-.95-.45-.45-1.05-.7-.65-.2-1.05-.65-.45-.5-.45-1 0-.7.35-.6.4.1 1.5 1.15 1.1 1.05 1.5 1.15.4.1.4-.6 0-.5-.3-.95-.25-.45-.65-.6-.8-.35.4-.45.55-.05.9-.35.4-.35.4-.85 0-1.1-.55-1-.85.2-2-.5-1.1-.7-.8-1.2.45-.6-.15-1.6-.6-.85-.6-1.55-.1-.65-1.9-1.65-1.85-1.05-.7-1.1 1.05 0 2.75 1.35t1.25 1.85q-.45.45.2 1.55.6 1.15 1.75.45.75-.45.75-.7 0-.25-.75-.7-.45-.3-.6-.7-.15-.4.1-.6.7-.65 1.25.6.6 1.3.25 2.7-.25.95-.05 1.3.2.4.9.4 1.3 0 .85 1.1Q14 51 14.5 51q.85-.05 1.5-.8t.75-1.85q.4-4.8.3-5.75-.05-.95-.9-.75-1.25.3-3.7.3Q10 42.1 9.7 41.8q-.35-.35.1-1.55.3-.7.65-.8.4-.05 1.25.5t1.45.55q.6 0 1.45-.55.95-.6 1.45-.4.5.2 1.45 1.5.6.9.95 2.2.4 1.3.35 2.4-.1 1.55.05 1.8.1.25.65-.45.6-.8.95-.8t1.2.85q.85.85 1.05.85.2.05.2-.8 0-.5-.3-.95-.35-.5-.75-.65-1.4-.5-.65-3.5.7-3 2.2-3 1.1 0 .65-1.45-.45-1.5.3-1.9.3-.2.4-.65.1-.45-.1-.9-.3-.85.35-1.2.65-.4 3.35-1 1.4-.3 1.7-.05.3.2.15 1.4-.25 1.8-1.35 3.15-.75.9-.6 1 .1.15 1.4-.25 1.75-.45 1.05.1-.9.7-1.25 2-.4 1.3.2 1.65.3.2.55.1.2-.1.2-.4 0-.7 1.2-1.15.7-.25.9-.05.15.2-.1 1.1-.15.6-.05.9.1.35.35.15.3-.15.5 0 .2.2.2.6.1.8 1.2-.9.5-.8.7-.9.2-.15 0 .4-.4 1.5-.4 2.95 0 1.05-.15 1.1-.15.1-.8-.7-.4-.5-1.25-.95-.9-.5-1.75-.7-1.2-.3-1.65-.1-.4.15-.45.95-.05.55-.15.7-.15.1-.3-.3t-.55-.7q-.45-.25-.85-.25-1 0-1.55-.9-.55-.85.65-.4.5.2.95.05.45-.15.55-.5.4-1.1-.1-1.9-.5-.85-1.5-.85-.8.05-.75.25.05.25 1 .95 1.1.85 1 .9-.05.1-1.55-.25-1.2-.3-1.6-.15-.45.15-.45.85 0 .5-.25.85t-.6.35q-.85 0 .1 1.1.55.7.5.95-.1.2-1 .2-.85.05-.9.15-.05.15.65.5 1 .6 3 1.25 1.25.4 1.4.25.1-.1-.6-.95-.95-1.25-.6-1.7.4-.35 1.65.75 1.2 1.1 1.1 1.75-.1.55.75.85.35.1.55-.15.25-.25.25-.7 0-.75.55-.85.5-.1 2.35.3.75.15-.75 1.25Q30.3 48 29.35 48q-1.15.05-1.2.2 0 .15 1.05.95.85.65 1.3.7.4 0 .75-.55.4-.55.5-.55.1 0 .15.55 0 .4.45.65.5.3 1.15.3 1.05 0 1.15-.2.1-.2-.6-1.05-.65-.85-.6-1 .05-.1 1 .25.85.35.95.25.15-.1-.4-.8-.55-.6-.45-.9.05-.3.7-.55.5-.2.7-.65.2-.45-.05-.95-.4-1.15.8-1.15l1.75-.05q.9-.1.75.7-.15.85-1.1 1.05-.95.2-.9.35.05.15 1.05.6 2.6 1.1 2.65 1.95.1.85-2.15 3.3-1 1.15-.55 2.15.45 1.05 1.8.7.55-.15 1.35.1.75.2 1.2.7.8.75 1.05.65.25-.1.45-1.3.4-2.05-.2-2.75-.65-.7-2.2.1-.95.5-1.2.5t.05-.5q.55-.85 2.4-1.55 1.55-.6 1.55-1.5-.05-.9-1.6-1.15-1.35-.2-1.75-.6-.5-.5.3-3.25t1.5-3q.85-.3.45 1.35-.4 1.65.4 1.15.4-.25.65-.05.25.15.25.65 0 1.05 1.05 1.15 1.05.1 1.45-.9.4-1.1.15 1-.3 2.1-.8 3.5-.55 1.65-1.15 1.3-.65-.35-1.15.5-.55.85 1.45.35 1.15-.3 1.6-.15.4.2.4.9 0 1.2-1.25.75-.8-.3-.9.2-.15.55.1 2.75.15 1.4.55 2.7.35 1.25.75 1.65.55.45.65.45.1 0-.15-.45-.2-.35.05-.7.3-.35.95-.55 1.25-.3 1.45.15.15.45-.85 1.45-.35.35-.45.75-.15.4.1.65t.6.1q.35-.15.6-.55t.65-.55q.4-.2.7 0 .35.2.95-.2.55-.4 1.05-1.2.5-.75.65-1.3Q54 57 53.7 57q-.75 0-1.2.75-.65 1.05-1.3.7-.65-.35-.3-1.55.25-.9.15-1.05-.1-.2-.6.3-.95.95-2.6.85-1.7-.15-1.7-1.15 0-.45.35-.75.3-.35.75-.35.5 0 .8-.35.35-.3.35-.8 0-1 .75-1.1.75-.05.75.95 0 .4.25.25.25-.15.6-.7.55-.95.8-.95t1 .95q.75 1 1.15.9.35-.05 1.4-1.4 2.45-3 .8-3-.3 0-.5-.3-.25-.35-.25-.8 0-.45-.5-1.1-.45-.65-1.15-1.1-.95-.7-1.5-.75-.55-.05-1.25.5-.65.55-.8.55-.15 0 .2-.55.2-.4.15-.7-.05-.25-.35-.25-.95 0-.8-.8.15-.8 1.15-1.2.5-.2 1.15.1.6.25 1.1.85.75 1.05.9 1.05.15 0 .15-1.05.05-1.2 1.6-2.7 1.55-1.55 2.3-1.1.25.2.45.15.2-.1.15-.35 0-.65-1.85-1.9t-1.85-.6q0 .35-.2.55-.25.25-.55.25-.3 0-.35-.35-.1-.35.1-.85.3-.8.1-.85-.2-.05-1.2.6-.65.4-1.2 1.3-.55.9-.75 1.8-.2.85-.5 1.5-.35.6-.6.6-.3 0-.4-.5-.1-.5.05-1.2.25-1.25.15-1.25-.15-.05-1 1-.65.85-.9.9-.25.1-.25-.5-.05-.65-.2-.65-.1 0-.65.7-.45.65-.7.7-.2.05-.45-.5-.15-.4-.7-.7-.55-.25-1.15-.25-.65 0-.95-.2-.3-.2-.1-.5.35-.7-.35-1.2-.95-.55-.75-1.25.2-.65 1.2-.3.8.3.9-.1.15-.4-.2-2.15l-.5-2.7 2.25 1.35q1.3.75 1.65 1.25.3.5-.15 1.05-.35.4-.8.6-.45.15-.7-.05-.6-.4-.6.2-.05.6.55 1.55.55.85 2.4.55 1.8-.35 2.95-1.5.8-.8.8-.95 0-.1-.85.25-.55.2-1.05.1t-.7-.45q-.2-.35-.1-.55.1-.25.45-.25t.45-.25q.1-.2-.1-.55-.2-.35.05-.7.3-.35.95-.5 1.45-.35 1.1-1.85-.4-1.4.6-1.4.55 0 .6-.2 0-.2-.5-.7-.9-.9-.85-1.45.05-.55 1.15-.95 1.25-.5.8.65-.2.45-.1.9t.35.65q.3.2.55 0 .2-.2.2-.65 0-1.05.95-1.9.55-.45.8-.3.25.15.3 1 .05.6-.15.9-.15.35-.45.15-.25-.2-.15.5.15.65.6 1.75.75 1.75.75 2.2 0 .45-.8.45-.5 0-.7.25-.25.2-.05.5.45.75 2.05-.1 1-.55 1.2-.45.2.05-.1.8-.2.5-.1 1 .1.45.35.65.3.2.55.05.2-.1.2-.4 0-.8.7-.8t.35 1.05q-.2.4-.05.85.1.45.45.7.35.2.55.1.25-.1.25-.4 0-.8.8-.8.65 0 1.8 1 1.15 1.05 1.15 1.6 0 .45-2.1-.1-2.1-.5-2.95-1.2-.9-.65-1.7-.2-.3.2-.5.1-.25-.1-.25-.4 0-.8-.75-.8-1.05 0-.75.85.35.85 1.5 1.15 1.5.45 1.5 1.15 0 .3.35.4.3.1.75-.05 1.05-.4 1.55 1.05.2.6.55.9.35.3.65.1.7-.45.35-1.45-.4-1.1.7-.6.95.35 1.05 1.35.1 1-.8 1.3-.4.1-.25.5.15.35.8.85.6.5.8.55.2.05-.05-.35-.65-1.1 0-.95.65.15 1.55 1.3.7.9.75.85.1-.05-.45-1.15-.8-1.7-.75-2.15.05-.5 1.05-.1 1.15.45 1.15.05 0-.35-2-1.1-1.95-.75-1.2-1.55.8-.75 2.55.15 1.2.65 1.35.6.1-.05-.65-.95-.4-.5-.55-1.05-.1-.5.1-.75.6-.5.95.4.35.95 1 .9.7 0 .7-.95 0-.4-.55-.95Q69.8 35 69 34.6q-1.85-.85-2.2-.8-.3.1.05 1.25.4 1.25-.2.5-.65-.85-1.75-.85-2.7-.05-4.65-1.7-1.75-1.4-1.3-1.75.45-.3 2.5.95 1.85 1.15 2.45 1.2.55.05 1.65-.9.65-.5.95-1.1.35-.55.2-.8-.2-.25-.05-.45.1-.15.45-.15t.55.25q.25.25.25.6 0 .4.15.5.1.15.3-.05.4-.4 1.75.85 1.3 1.25 1 1.8-.2.35 1.45.6 1.6.25 2.95.05.5 0 1.8 1.4.95 1.1.9 1.3-.1.2-1.5.2-1 0-1.4.3-.45.3-.4 1 .1 1.3-.65 1.3-.7 0-1.65.65-.95.55-.95-.55 0-1.05.9-1.4.55-.2.55-.6 0-.45-.55-1.5-.9-1.65-.6-.5.35 1.3-.3 1.3-.7 0-1.5 1.5-.5.85-.4 1.5.05.65.6 1.5 1.05 1.4 1.55 1 .2-.25.3.5.15.75.1 1.95-.1 2.9-.45 1.45-.4-1.55-1.55-3.2-1.2-1.7-1.85-1.7-.3 0-.15.55.15.5.65 1.3 1.2 1.85 1.2 3.1 0 .9-.2.9t-1.2-.85q-1.1-1.05-2.1-1.2-1-.15-1 .7 0 .75.7.75.75 0 .3 2.25-.5 2.25.4 2.25.8 0 .65.85-.05.35.6.8.65.45 1.6.7 2.45.65 2 1.8-.2.45-.65.8-.45.3-.9.3t-.65-.3q-.25-.3-.1-.7.4-.95-1.85-.85-2.2.15-3.15 1.1-.5.55-.35.6.1 0 .95-.4 1.35-.7 2.85.5 1.45 1.15 1.2 2.75-.1.6.1.95.2.4.6.3.4-.05.5.2.15.25-.05.75t-.65.8q-.5.3-1 .25-3.85-.35-3.85 1.15 0 .5-.45.8-.45.35-1.05.35-1.5 0-1.5-.45 0-.65 1.3-1.65 1.3-.95 2.65-1.3 1.65-.4 2.2-1.35.5-.95-.2-2.1-.4-.65-.55-.55-.15.05-.15.85 0 .55-.2.85-.2.3-.5.1-.25-.2-.6-.05-.3.15-.45.55-.35.9-.45-.35-.05-.5.2-.9t.6-.4q.35 0 .5-.15.1-.15-.15-.4t-.7 0q-.5.25-.9.8-.45.65-1.1.9-.6.3-1.1.1-1.15-.45-1.15.25 0 .3-.35.35-.3.1-.8-.1-1.1-.45-1.1-1.35 0-1-1-1.8-.6-.5-1.1-.35-.5.15-1.3 1-.55.6-.7 1.05-.2.45.15.45.85 0 1.1-.9.1-.4.45-.45.4-.1.75.15 1 .6.8 1.2-.2.65-1.5 1-1.85.45-1.05 1.25.8.75 2.7.35 2.2-.5 2.2.35 0 .3-.3.55-.35.25-.75.25-1.05 0-1.5 1.1-.45 1.15 1.4 1.15 1.6 0 2.25.8.65.85-.45 1.5-.6.4-.5.55.1.15.95.2.65.05.8.15.2.15-.2.3t-.7.65q-.3.45-.3.95-.05 1.2-.45.3-.15-.4-.45-.55-.35-.15-.65.05-.65.5-.25 1.15.45.7 2.45.7.8 0 1.2-.2.35-.15.05-.4-.8-.5.5-3.15l1.35-2.65-.65 5.8 1.6-2.05q.95-1.25 1.05-1.75.1-.5-.5-.9-.45-.25-.6-.6-.15-.3.05-.55.55-.45 1.75.75 1.15 1.15 1.5 1.1.35-.05.35-1.35 0-.6-.4-1.1-.35-.55-.9-.7-.95-.2-.95-.3 0-.05.95-.1.55-.05 1.1.25.5.3.65.75.4 1.1 1.1 1.1.7.05.7-1 0-2.25 3.9-1.15 1.45.4 1.65.25.15-.15-.4-1.2-.35-.65-.7-.9-.4-.25-.6.05-.5.65-2.55.85-1.4.1-1.6-.2-.2-.25.3-1.55.7-1.85-.05-1.85-.7 0-.7-.8 0-.35.2-.45.2-.1.5.1.65.4 1.3-.6.7-1.1 1.65-1.35.7-.2.7-.5 0-.25-.7-.95-1.2-1.25-1.15-2.45.05-1.25 1.3-1.25.6 0 1.05-.2.4-.25.4-.55 0-.3.3-.5.3-.25.7-.25.9 0 2.75-1.7 1.85-1.75 2.15-2.85.45-1.55-.15-4.9-.6-3.3-1.3-3.3-.55 0-.2 1.5.25.9-.05 1.2-.3.3-1.5.3-1.1 0-1.5.35-.45.3-.45 1.1 0 1.45-.55 2.8-.35.9-.2.95.15.1.95-.6.5-.4.8-.9.25-.5.1-.75-.2-.25.15-.7.3-.4.9-.7 1.5-.8 1.95-.05.2.3 0 .55-.2.2-.7.2-.5 0-.8.25-.35.2-.35.5t.25.55q.2.2.5.2.75 0-.05 1.55-.35.65-.9 1t-1 .15q-1.05-.35-1.05 1.05 0 .85-.4 1.1-.4.3-1.5.2-1.35-.1-1.8-.7-.5-.6.75-.6.6 0 .5-1.25-.15-1.25-1.05-4.4-.35-1.1-.2-1.1.2 0 1.3 1 1.15 1 1.35.9.25-.1.4-1.65.3-2.1 1.4-1.95 1.15.2 1.35-2 .1-1.3-.25-1.8-.35-.55-1.5-.8-.75-.2-1.3-.55-.55-.35-.55-.6 0-.4 1.85-1.8 1.85-1.45 1.95-1.1.45 1.6.25 2.1-.15.45-1.15.2-.55-.15-1 0-.4.1-.4.45t.45.6q.4.25 1.05.25t1.2.35q.6.3.75.75.5 1.2 1.1 1.1.55-.15.9-1.5.25-.9.1-1.15-.15-.25-.8 0-1.15.5-.8-.5.15-.4.5-.6.4-.2.75-.1t.55-.15q.15-.2.05-.6-.15-.4-.5-.65-.35-.2-.75-.15-.85.25.1-1.3.6-.95.5-1.45-.05-.5-.9-1.35-.95-.95-1.1-.85-.1.1.25 1.6.45 1.85-.3 2.05-.75.15-2.15-1.45-.5-.6-1.05-.9-.55-.35-.8-.2-1 .65-2.15-.15-1.1-.8-1.2-2.2-.15-2 .95-1.55.4.15.75.05.3-.1.3-.4 0-.75.75-.35.3.2.55.05.2-.15.2-.55.1-.9 1.15.5.45.6.7 1.35.2.75.05 1.15-.35.85.4 2.45.75 1.65 1.25 1.15.35-.45-.5-1.55-.8-.9-.45-1.85.35-.9 1.25-.35.3.2.85-.15t1.05-1.05q.5-.65 1.1-1 .65-.4 1.1-.2.4.15.95-.15.5-.3.85-.9.45-.9.4-1.1-.05-.2-.7.05-.6.25-.75-.05-.15-.25.05-1.1.3-1.1.55-1.1.2 0 1.25 1.25.8.95 1.1 1.05.3.1.3-.55.1-1.2.95-2.05.85-.85 1.1-2.4.2-1.5-.55-1.5-.85 0-2.45.9-1.55.85-3.5 1.15-1.9.3-2.15.75t.55 2.15q.55 1.2.5 1.95-.05.7-.8 1.85-.75 1.1-1.2 1.3-.4.2-1.1-.35-1.05-.85-1.05-1.85 0-.4-.3-.8-.25-.4-.65-.55-.55-.2-.55-.45t.55-.85q.55-.6.75-.6.2 0 .2.55 0 .85.75.45.5-.3.75.35.25.65.1 1.75-.1.6.6.55.75-.05 1.1-.7.2-.25.1-.55-.1-.3-.4-.4-.8-.25-1.15-2.2-.2-1.1.15-1.7.3-.65 1.35-1.2.8-.4 1.15-.95.4-.5.15-.85-.55-.95-.6-1.8-.1-.9.4-.9.65 0 1.1 1.9.35 1.45 1.25 1.6.85.2 1.25-1.1.3-.95-1.05-.4-.95.35-1 .2 0-.15.85-1.15 1.2-1.45.85-2.35-.15-.4 0-.7.15-.25.5-.25 1.15 0 .9 2.3 0 .45 1.6.35 1.6 0 1.9 1.45.1.65.75 1.7.7 1.05 1.5 1.9Q95.2 18 94.65 18q-.45 0 .2 1.8.4 1 .3 1.6-.1.65-.7 1.15-.4.35-.75.9-.3.55-.3.9 0 .9-1.3 2-1.25 1-.7.1.5-.95-.15-.95-.25 0-.6.55-.3.55-.45 1.3-.35 1.85 1.8 3.85.85.85 1.5 1.3.65.4.65.15 0-.55 1 .25.95.8 1.45.3.55-.5.55-2.15 0-.65.35-1.3.3-.6.75-.8 1.25-.45 1.1-1.15-.2-.7-1.65-1.1-1.2-.35-1.25-.55-.05-.25.9-.95 1.3-1 1.3-1.75 0-.8.95-1.15.4-.15.75-.95.35-.85.4-1.85.2-2.45.9-3.8M86.55 1.6q.2.05 0 1-.1.55-.45 1.1-.4.5-.75.6-1 .35-.9-.45.05-.8 1.15-1.7.8-.65.95-.55m-5.2 11.75q0 .8-.2.8-.2-.05-.9-1-1-1.3-1.5-.9-.55.35-.55 2.35 0 1.55-.6 1.75-.6.25-2.25-.65-.95-.5-1.2-.3t-.25 1.45q0 .8.25 1.35.2.55.5.55t.55.25q.2.2.2.5 0 .35-.55.2-.55-.1-1.3-.6-1.3-.85-1.45-.85-.2.05.05 1.1.15.6 0 1.2-.15.65-.55.85-.5.3-.6.15-.15-.15.1-.8.45-1.15-.35-1.7-.8-.5-1.45.55-.35.6-.5.6-.15 0-.15-.6 0-.4-.3-.6-.25-.2-.65-.05-.85.35-2.35-.85-1-.85-1.15-.85-.15.05.2 1.1.45 1.5-.25 2.65-.4.65-.6.35-.15-.25-.15-1.6 0-2.1.45-3.4.4-1.35 1.1-1.35.25 0 .35.35.05.3-.15.75-.45 1.2.4 1.15.85-.1 1.6-1.3.55-.85.65-.85.05-.05-.2.75-.15.55.1 1.2.2.65.7 1.05.8.65.9.55.15-.1-.2-1.15-.2-.65-.15-1.3.05-.6.35-.75.25-.2.45 0t.1.65q-.1 1 .5 1.1 1.5.1 2-.2.45-.3.45-1.3 0-1.45-.95-1.15-.35.2-.65.05-.3-.1-.3-.4 0-.7 1.15-.7.85 0 .9-1.1.05-1.15-.5-5.65Q72.35 6.4 71 9q-1.45 2.65-.65 3.1.3.2.05.5-.3.3-1 .5-1.65.5-2.5-.35-.5-.5-.35-.6.2-.1 1.2.2 1.3.4 1.35.1.05-.3-.8-2.35-1.1-2.75-1.05-3.05.05-.3 1.35 1.3 1.15 1.3 1.3 1.35.2 0 .2-1.2.05-1.25 1.1-1.95t2-.15q.3.2.5-.1.2-.3.2-.85 0-.85.15-.9.1 0 .6.7.7 1.1-.05 1.35-.85.3-.65 3.15.15 2.85 1.1 4.05.65.95 1.05 1 .4.1 1-.5.55-.6.55-.85t-.6-.5q-.4-.15-.55-.45-.15-.3.05-.55.4-.65-.65-.3-.6.25-.85-.1-.2-.3-.15-1.3.1-1.9 1-2.65t1.8.3q.55.7.5.85-.05.1-.85-.2-.65-.25-.85-.1-.2.15.05.75.45 1.15 1.65 1.6 1.2.45 1.7-.35.45-.7.95.35.55 1 .5 2.55m1.25 4.25q-.4-1.1.7-1.1.45 0 .8.35.3.3.3.75 0 1.15-.7 1.15-.65 0-1.1-1.15m14 .6q-.25-.7-.15-.8.15-.1.75.25 1.05.7 1.65.7.5 0 .75.7.1.25-.55.5-.6.3-1.55.35-2.2.2-1.35-.15.4-.15.5-.6.15-.45-.05-.95m1.55-2.1q.2-.35.5-.35.75 0 .75.7t-.75 1.15q-.3.2-.5 0-.25-.2-.25-.7 0-.5.25-.8m-3.6-2.25q.1.2-.1.7-.35.95-.7 1.15-.35.15-.35-.65t.75-1.2q.3-.2.4 0m2.55 7.95q.8-.3.8.75 0 .85-1.1 1.85-1.3 1.35-1.9 1.05-.55-.3.45-1.85.95-1.45 1.75-1.8m-3.35 5.65q1.45-1.05 2.3-.4.9.65.5 2.55-.25 1.5-1.55 1.85-1.3.35-2.05-.85-.6-.85 1.05-.4.7.15 1.15.1.5-.05.5-.3t-.5-.55q-.5-.3-1.2-.45-1.25-.35-1.25-.55-.05-.2 1.05-1M62.1 12.95q1.55 0 .7.3-.55.2-.55.55-.05.3.45.9.9 1.05.05 1.05-.35 0-.45.35-.1.3.05.75.4 1.1.2 1.1-2.1-.5-2.3-2.7-.2-2.2 1.85-2.3m3.65 10.35q-.6-.35-1.25.7-.2.3-.05.55.15.2.5.2.9 0-.05 1.1Q64 27 63.35 27q-.7 0-1.8-1.25-1.15-1.25-1.1-2 .05-.45.15-.45.1 0 .3.5.45 1.1 1.3.8.9-.35 2.65-2.3.9-1 1.7-1.55.8-.55 1.05-.3.25.25.2.6-.1.35-.45.55-.45.3-.4.75.05.4.65 1.2.4.6.75.75.3.2.3-.2t.25-.55q.2-.15.5.05.75.45.75 2 0 .95-.2 1.1-.25.1-.95-.45t-.95-.5q-.3.1-.6.95-.4 1.35-1.25 3.1-.65 1.4-2.15 1.7-1.45.25-.95-1.15.2-.45.1-.75-.15-.35-.5-.35-.8 0-.8-.75 0-.3.35-.5.3-.25.75-.25.5 0 .8.25.35.2.35.5 0 .75.7.75.3 0 .4-.35.1-.3-.1-.8-.2-.45-.05-.75.1-.35.45-.35t.6-.55q.25-.55.25-1.35 0-1.4-.65-1.8m-4.6-4.5q1.35 1.15 1.4 1.25 0 .15-1.2-.2-1-.25-1.25-.1-.25.1 0 .8.2.5.15.85-.1.35-.35.35-.85 0-.55 2.3.3 2.35 1.3 3.75 1.1 1.55 1.2 2.35.1.75-.9.4-.4-.1-.65-.5-.3-.4-.3-.8t-.25-.8q-.3-.4-.65-.5-.4-.15-.7.1-.25.25-.25.75t-.2.85q-.2.35-.45.35-.6 0-.6-2.25 0-.9.2-1.4.2-.55.45-.4.25.2.4-.5.15-.65.05-1.75-.1-1.7-.45-2.15-.35-.45-1.6-.4-1.9.1-2.95-.2-.45-.15-.85.05-.4.25-.55.65-.2.45-.1.65.1.15.35 0 .25-.15.8.05.5.25.95.7.7.75.7.9 0 .15-.7-.1-.8-.25-2.25 1.05t-1.45 2.25q0 .25-.2.35-.25.05-.55-.15-.9-.5-3.45.55-2.55 1.05-2.25 1.85.4.9-.75.5-1.1-.45-.65-1.85.4-1.25-.25-1.35-.65-.1-1.65 1.05-.55.65-.55 1.15-.05.45.5 1.1.75.85.45 1.8-.35 1-1.2.45-.3-.2-.5-.1t-.2.45q0 .35-.2.55-.25.25-.55.25-.85 0-.7-.55.15-.6 1.25-1.5.9-.75.85-.85-.05-.1-1.2.15-1.7.35-1.7-.35 0-.65 1.2-.65t.75-1.2q-.2-.45-.1-.65.05-.25.3-.1.25.2.55-.25.3-.4.45-1.15.35-1.75-.65-1.4-.95.4-.95-.35t.95-1.55q1-.85 1.9.1.55.55.6.35.05-.25-.45-1.5-.45-1.15-.4-1.6 0-.45.55-.45.5-.05.5-.15-.05-.15-.6-.5-.6-.4-.55-.65.05-.2.8-.5.55-.2.75-.55.25-.35 0-.65-.2-.3-.1-.5.1-.25.4-.25.95 0 1.25.9.35.85-.4 1.35-.95.55-.05 1.1.35.2.9.1.6-.1 1.05-.5.9-.7 1.1-1.55.15-.85-.7-.35-.25.2-.6-.05-.3-.2-.5-.7-.25-.65-.1-.85.15-.2.75.05 1.15.45 1.15-1 0-.55.45-1.15.45-.55 1.05-.75.65-.2.95-.6.3-.35.1-.75-.3-.7 1.05.8 1.5 1.75 1.9.75.4-1 .45-.05.1 1.05-.85 1.4-.9.35-1.45-.5-.4-.6-.5-.55-.15.05-.15.85 0 .55-.2.9-.2.4-.5.4-.7 0-.6 1.5.05.6.35 1.05.3.45.7.45.4 0 .55-.35.15-.3-.05-.8-.45-1.2.1-1.05.55.2 1.9 1.65.9.95 1.15 1 .2.05-.05-.65-.2-.55-.15-.95.1-.35.45-.35t.45-.35q.1-.3-.1-.8-.25-.65.3-.9.55-.2 2.5-.2 2.15 0 2.45.15.3.15-.55.8-.95.7-.95 1 0 .3.95 1.1 1.35 1.1.75.15-.65-1.1.15-.9.8.2 2.4 1.5m8.65 4q-1.2-.85-.75-1 .5-.15 1.8.65 1.1.7.75 1.05-.35.35-1.8-.7M56.65 4.3q0 .25-.55.4-.55.15-1.3.15-1.4 0-2.8-.7-1.35-.75-1.35-1.5 0-.55 1.15.35.7.6 1.25.6.6 0 1.65-.6 1.75-.95 3.15-.1.95.5 1 .65 0 .15-.9.15-1.3.1-1.3.6M54.4 1.5q0 .75-.35.75t-.8-.75q-.2-.3-.1-.5.1-.25.45-.25.8 0 .8.75m-6.45 1.05q-1.1.4-1.35.4t-.7-.45q-.8-.8-.4-1.25.4-.5 1.75-.5 1.6 0 1.85.65t-1.15 1.15m-6.7 1.2q.35-.5 1.1-.35.8.15.8.75 0 .35-1.2.35-.45 0-.65-.2-.25-.25-.05-.55m1.7 7.85q-.45.05-1.65-.8-.9-.7-.95-.85-.05-.2.75-.2 1.15 0 1.7.8.6.95.15 1.05m1.8-.15q-1-1.1-.65-1.25.3-.15 1.9.7 1.7.9.75 1.25-.4.2-1-.05-.6-.2-1-.65m-4.2 1.8q.35-.3.35-.65 0-.85.4-.45.35.35-.1 1.6-.4 1.05-1.05 1.2-.6.15-1.15-.7-.2-.3.05-.5.2-.25.65-.25.5 0 .85-.25M46.3 29.9q.35-.1.45.15.25.7 1 .7.3 0 .4-.2.1-.2-.1-.5-.15-.25.05-.6.2-.3.65-.5 1.15-.4 1.15.9 0 .75-.6 1.1-.6.35-2.1.4-1.75.1-2.05-.05-.3-.15.35-.85.4-.45.8-.55m1.7 6.05q.15.25-.15.55-.35.3-.95.45-1.5.35-1.5-.2 0-.65 1.15-1 1.1-.35 1.45.2m-.4 12.9q-.35-.05-.45-.3-.1-.25.1-.5.55-.9 2.5-.45 2 .4 1.9 1.4-.05.55.15.75.15.25.45.05.65-.35.65-1.9 0-.6.25-.9.2-.35.5-.15.75.55.25 1.3-.2.35.05.85.25.55.75.9.55.4.7.8.15.4-.15.6-.3.2-.7.1-.35-.1-.55-.45-.2-.35-.7-.45-.5-.1-1 .1t-1 .05q-.5-.15-.75-.55-.65-1-1.4-1.1l-1.55-.15m6.05-9.6q1.3 0 1.6.2.3.2-.2.8-.75.9-1.45.95-.7.1-.7-.75 0-.35-.2-.45-.25-.1-.55.1-.3.2-.5.15-.25-.05-.25-.35 0-.25.65-.45t1.6-.2m22.65-10.9q.9.9.5 1.25-.35.4-.9-.15-.5-.5-.5-1.25t.9.15m-3.9-1.05q.75.15.75.5 0 .75.6.4.25-.15.45.3.2.4.25 1.15.1.75-.1 1.3t-.55.55q-.45 0-.45.2 0 .25.45.8t.4.8q-.05.2-.7.2-.45 0-.75-.3-.35-.35-.35-.75 0-.45-.25-.6-.2-.15-.55.05-.35.2-.7-.15-.35-.3-.55-1-.4-1.6-1.45-1.2-1 .4-1-.9 0-.7.6-1.05.6-.3 2-.4 1.1-.1 1.9.1m-1.85 21.65q.2-.65 1.15.3.35.35.5 1.05.15.7.05 1.35-.15 1.1-.35 1.05-.15-.1-.8-1.5-.75-1.6-.55-2.25M31.75 10.4q-.4-.25-.5-.45-.1-.2.15-.2.7 0 2.55 1.5 1.1.85 1.2 1.2.15.3-.6.3-.5 0-.75.25-.25.2-.05.5.45.75.05.75-.35 0-.45-.2-.1-.25-.35-1.6-.25-1.4-1.25-2.05m4.9 1.85q.2-.25.5-.25t.55.25q.2.2.2.5t-.2.55q-.25.2-.55.2-.3 0-.5-.2-.25-.25-.25-.55 0-.3.25-.5M21.85 8.1q.1.55-.55.95-2.15 1.4-2.15-.1 0-.35.25-.45.2-.1.5.1.85.55.7-.05Q20.5 8 19.5 7q-.45-.45-.65-1-.25-.55-.05-.8.2-.3-.35-.5t-1.5-.2q-.95 0-1.65-.25-.65-.25-.65-.6T15 3.2q.35-.1.85.1.55.2 1.2.1.65-.15 1.05-.5.6-.5.85-.45.2 0 .2.5 0 1 1.6 3.2 1 1.4 1.1 1.95m.65 5.9q-.2.65-.05 1.3.1.6.4.8 1 .6.75 1.25t-1.45.65-1.45.65q-.1.65 1.15 1.15 1.25.45 1.55.4.25-.05-.15-.7-.2-.3.05-.5.2-.25.65-.25.5 0 .85.2t.35.45q0 .65-1.2 1.1-1.2.5-2.8.5-1.2.05-1.2.2-.05.15 1 .95 1.3 1 1.1 1.4-.25.35-1.65-.45-1.35-.75-.95-2.55.35-1.35-.25-1.7-.6-.35-3.05-.2-1.1 0-.2-.35.95-.45.95-1.5 0-1.45-2.4-1.15-.45 0-.9-1.05-.2-.5 0-.8.2-.3.7-.3.45 0 .8.25.3.2.3.5t.25.55q.2.2.55.2.8 0 1.9 1.1.95.95 2.15 1.1 1.15.15 1.15-.7 0-.3-.2-.5-.25-.25-.55-.25-.3 0-.5-.2-.25-.25-.25-.55 0-.3.3-.5.3-.25.75-.25 1.05 0 1.5-.95.35-.75.05.7m1.45 10.25q-.3-1.6-.05-1.95.2-.35 1.55-.35 1.95 0 1.95.65t-1.7.65q-1.2 0-1.15.25.05.3 1.6 1.7 2.05 2 1.65 3.05-.4 1.2-.4 1.7 0 .65-1.5 1-.6.15-1.25.85-.65.65-1 1.5-.75 1.95-1.1 1.95-.45 0-.15-1.45.35-1.45 1.05-2.8.55-.95.5-1.45 0-.5-.6-1-.95-.8-1.3-.45-.35.25-1.3-1.2-.65-1.05-.5-1.15.1-.1 1.3.55 1.15.65 1.25.6.15-.05-.55-.9-.9-1.1-.35-1.25.6-.15 1.6.9.55.55.6.25.1-.3-.15-1.65m5.7-2.5q0 .75-.8.75-.35 0-.45-.2-.1-.25.1-.55.45-.75.8-.75.35 0 .35.75M27 24.1l1.95.2q1.95.2 2.8.75.9.55.9-.95 0-.6.35-1.15.3-.55.8-.75 1.1-.4.7.3-.2.3-.1.55.05.2.35.2.75 0 1.2-1.2.4-1-.55-2.55-.95-1.6-1.55-.95-.5.5-.05-.75.5-1.25.95-1.25.4 0 1.35 1.25 1 1.3 1 .35.1-.95.7-.6.65.4.3 2.05-.45 1.65.4 1.1 1.1-.7.8 0-.35.75-1.8 2.25-1.85 1.85-1.85 2.55 0 .3-.3.4-.25.1-.65-.05-.35-.15-1 0-.6.1-1.05.4-.75.5-.75.75 0 .2.7.7 1.15.7 1.55.05.15-.3.55-.35.35-.05.75.2.9.6-1.2 1.35-1.15.45-1.8.4-.65-.05-1.2-.6-.9-1-.45-1 .15 0-.3-.55-.55-.6-1.4-1.3L27 24.1m10.15-9.45q0-.8.55.05.4.65 2.05 1.65 1.65.85.35.85-1 .05-2-.8-.95-.9-.95-1.75m-4 .55q.3-.2.95-.2 1.55 0 1.55.3 0 .55-1.15.7-1.2.2-1.5-.3-.2-.3.15-.5m-1.05 1.3q.25.8 0 1.15-.25.35-1.05.35-1.3 0-1.35-.4-.1-.45 1-1.5.7-.65.95-.6.25.05.45 1m.05 3.55q-.5-.75.4-.25.8.55.05 2-.65 1.25-1 1.35-.35.15-.85-.65-.4-.75.7-1.2.5-.2.7-.55.2-.35 0-.7M13.35 8.4q.15-.1.6.35.9.9.55 1.7-.25.85-.8.3-.55-.5-.55-1.65 0-.65.2-.7m4.4-.65q.75 1.4.45 1.65-.35.4-.85-.25-.45-.65-.45-1.6.05-.7.2-.7.15.05.65.9m-3.3 14.75q-.65-.25-.9-.5-.2-.2.2-.2 1-.1.55-1.75-.3-1.45.05-.75.15.35.7.65.5.3 1.05.3 1.25 0 1.85 1.25.55 1.2-.45 1.85-.6.35-.55.5 0 .1.65.15.95 0 .55.5-.2.2.1.85.3.65.95 1.35.65.65 1 1.4.3.75.1 1.1-.45.8-1.4.8-.5-.05-.5-.15 0-.1.5-.45.85-.6.2-1.7-.7-1.15-.7-.15 0 .4-.2.65-.25.3-.55.3-.65 0-.3-1.15.2-.45.1-.75-.15-.35-.5-.35t-.55-.45q-.25-.45-.25-1.1 0-.65-.45-1.25-.5-.65-1.25-.95m.95 4.5q.3 0 .55.25.2.2.2.5t-.2.55q-.25.2-.55.2-.3 0-.5-.2-.25-.25-.25-.55 0-.3.25-.5.2-.25.5-.25m.9 3.55q-.25-1.15-.15-1.2.15-.1 1 .55.5.4.9 1.05.35.65.35 1.1 0 .7.3.6.3-.1 1.1-1.05 1.4-1.55 1.7-1.25.5.5.05 3-.45 2.55-1 2.2-.25-.15-.45 0-.2.1-.2.45 0 .85 1.5.35 1.5-.45 1.5.45 0 .4-.15.55-.1.15-.3-.05-.45-.45-2.25.2t-2.2-.05q-.2-.3-.1-.5t.45-.2q1.1 0 .75-1.45-.3-1.5-1.45-1.8-1.05-.25-1.35.2-.35.5-.35 2.3 0 .4-1.9 2.2-1.8 1.8-1.55 1.1l1.6-3.45q1.25-2.7 1.95-3.2.3-.15.35-.75.1-.65-.1-1.35m-9.75 8.3q.35.35.5.7.15.4 0 .55-.35.4-.9-.15-.5-.5-.5-1.25t.9.15M5.5 43.5q.75 0 1.3 1.55.4 1.3-.2 2.3-.65 1-1.25 0-.2-.3-.1-.7.1-.35.4-.55.8-.5-.05-1.55-.9-1.05-.1-1.05m3.15 5.95q0-.35.25-.45.2-.1.5.1.75.45.75.8 0 .35-.75.35t-.75-.8m10.65-9.7q-.65 0-1.25-.2-.6-.25-.8-.55-.35-.65 1.05-.55 1.4.1 2.05.75.25.25-.05.4-.35.15-1 .15m-5 5.85q-.05-.7-.4-1.35-.8-1.5-.05-1.5.8 0 .8 1.05 0 1.1.8 1.35.85.25-.5 1.35-.55.5-.8.55-.25.05 0-.35.25-.4.15-1.1M31.15 30q0 .3-.5.55-.5.2-1.2.2-1-.05-1.1-.15-.1-.15.55-.6 2.25-1.45 2.25 0m.85 3.05q.1-2.55.45-1.2.3 1.15 1.1 1.9.75.7 1.7.7.75 0-.7-1.1-.8-.65-.9-.85-.05-.25.6-.25 1.1 0 3.5 2.35t2.4 3.4q0 .45-.2.6-.25.2-.55 0-.3-.2-.5-.1-.25.1-.25.4 0 .35-.7.55-.75.2-1.8.15-4.4-.15-4.15-6.55m5.95 9.25q-.7.45-1.15-.25-.45-.7.3-1.15.25-.2.6-.1t.55.35q.15.3.1.65-.1.35-.4.5m1.8-.4q-.5-.75.3-1.65.85-.85.85.85 0 2.8-1.15.8m30.4 9.65q0 .95-.7.95-.65 0-1.2-1.55-.5-1.55 0-2.05.4-.4 1.15.6.7 1 .75 2.05M61.9 61.6q.55-.3.65.05.1.35-.2.9-.3.55-.85.95-1.65 1.2-1.9.95-.3-.3 1.05-1.8.65-.75 1.25-1.05M36.45 36.4q-.7-.4-1.5 0-.8.35-.8 1.15 0 1.35 2.15 0 1-.65.15-1.15m-10.9-7.9q1.05 0 1.45-.7.35-.75-.3-1.15-.7-.45-1.85.05-1.15.5-.8 1.1.4.7 1.5.7m46.6.6q-.35-.9-.45.45-.05.6.1.9.1.3.3.1.4-.4.05-1.45m-29-2.85q0 .3.25.55.2.2.5.2t.55-.2q.2-.25.2-.55 0-.3-.2-.5-.25-.25-.55-.25-.3 0-.5.25-.25.2-.25.5M55 15.8q-.6.35-.6 2.2 0 1.35.3 1.8.3.45 1.25.45 1.55 0 1.15-.95l-.9-2.25q-.55-1.55-1.2-1.25m-9.6 4.8q-.9 1.15-.15 1.15.3 0 .6-.25.35-.3.45-.65.2-.5.35-.5.2-.05.5.45.2.35 0 .95-.2.55-.7 1.05-.5.5-.6.85-.1.35.2.35.3 0 .75-.4t.75-.9q.3-.55.7-.8.4-.2.6.05.5.5-.7 1.9-1.25 1.35-1.25 1.9 0 .5 1.15.5 1.1 0 .95-1.3-.1-.55.1-.9.2-.3.6-.25 1.1.25.9-.75-.25-1-1.55-2.15-1.5-1.3-2.1-1.35-.65-.05-1.55 1.05m-3.2 2.25q.15.8.55 1.35.45.55.85.55 1.05 0 .95-.5-.05-.5-1.3-1.85-1.05-1.1-1.2-1.05-.1.05.15 1.5z" id="c"/><path fill="#fff" stroke="none" d="M363.1 174.75q-3.55-.2-7.15-.4v.05q-.25 0-.55.05l-.5.1q-.6.05-1.25.1h-.55q-2.05-.15-3 1.6l-.1.2v1.3l.2.4q.45 1.05 1.55 1.15 5.35.45 10.7 1-.3 2.55-.5 5.1-.1 1.4-.35 2.7-.5 2.55.95 4.55 1 1.25 2.5.7 2.85-1.05 2.85-4.3-.05-4.15.25-8.2 1.4.1 2.8.25 3.15.3 6.2.9 3.6.7 6.75-.85 1.15-.6 1-1.85-.35-4.15-5.25-3.2l-1.2-.2q-3.65-.45-7.4-.7-1.15-.05-2.25-.1.05-.5.15-1 .4-2.7 1.15-5.35 1.25-4.65-2.75-6.3v.05q-.3.05-.6.05-.3.1-.55.2-1 .5-1.2 1.55-1.1 5.2-1.9 10.45m-35.9 7.75q3.9 3.75 7.35 7.95 1.85 2.15 4.45 2 1.2 0 1.65-1.15 1.2-3.55-2.2-6-1.1-.8-2.1-1.7-8-7.15-14.65-15.5-.9-1.65-2.2-3-2.35-2.4-5.3-3.7v.05q-.3.05-.6.05-.1.05-.15.05-.7.25-1.15.8l-.35.35q-.4 1 .1 1.7 3.75 5.4 8 10.45 3.35 4 7.15 7.65m35.6-59.2q-.5 0-.9.35-2.65 2.25-5.35 4.65-2.95 2.75-5.5 5.8-6.45 7.85-14.35 14.1-.75-.65-1.2-1.55-4.15-7.3-8.95-14.25-1.35-2-2.6-4.1-2.5-4.15-5.95-1.35-.65 1.95.6 3.7 6.2 8.75 11.25 18.25 2.35 4.45 7 6.15 1.1.4 1.95-.3 2.75-2.25 5.45-4.55 6.3-5.35 11.6-11.7.5-.65 1.1-1.2 4.1-3.85 7.55-8.3 3.1-4.05-1.7-5.7m17.9.3q-1.1 0-1.8.9-2.25 2.55-3.8 5.65-2.1 4.15-4.95 7.9-4.95 6.4-10.2 12.5-1.5 1.75-.45 3.7 1.75 3.35 4.65.9 3-2.55 5.35-5.75 2.35-3.2 4.6-6.5 3.95 5.75 8.7 11.1 1.65 1.9 3.45 3.7 1 1 2.3.4 4.2-2 .85-5.35-.25-.85-.85-1.55l-3.7-4.5q-3.65-4.4-8.05-7.95 2.3-3.65 4.45-7.45.65-1.05 1.3-2.05 2.55-4.15-1.85-5.65z" id="d"/><g id="b" stroke="none"><path fill="#000" d="M432.7 90.55q-9.7-.7-19.65-.5-11.8.2-23.6.15-.15 0-.25-.1-.15-.05-.25-.15l-3.45-.1q-12.75 0-25.55.15t-25.6.05q-11.9-.1-23.6.45-2.1 0-4.2-.1-1.4-.05-2.7.45-2.2 0-4.4.2-2.2.25-3.95 1.75-.25.55-.4 1.1-.14.42-.25.85-.825 2.004-1.7 3.9-2.3 4.85-3.7 10-2.45 8.95-4.35 18-.8 2.8-1.4 5.7-.9 4.3-1.7 8.6-.35.95-.65 1.9-.4 1.1-.35 2.25-.4.85-.55 1.7-.15.85-.1 1.75-.4.95-.55 1.95-.15 1.1-.1 2.25-.35 1.8-.75 3.65-.6 2.75-1.4 5.45 0 .75-.1 1.45-.15.8-.55 1.5-.05 1.25-.45 2.45-.45 1.45-.85 2.95-.9 5.3-1.85 10.6-1.5 8.25-1.85 16.7-.05.1-.15.25-.1.1-.15.25l-.1.2q0 3.1-.3 6.15-.15 1.95-.45 3.9-1.25 7.75-.7 15.55.143.218.3.4l-.05.15.1.4q0 .15.1.25.05.15.15.25 1.2.7 2.7.65 1.7-.05 3.4 0 9.9.6 19.95.65 12.8.05 25.55.05 12.8 0 25.6.1 12.5.15 24.8-.45 3.6.05 7.15 0 5.4-.05 10.8-.05 3 .6 6.15.75 3.08.119 5.95-.4 1.991.014 4-.1 1.7-.15 3.4-.1 12.5.2 24.6-1.1 2.85 0 5.65.15 4.35.2 8.4-.65.028-.04.05-.1.077-.012.15-.05 1.25-1.7 1.7-3.85.6-3.1.6-6.2 1.895-10.324 4.25-20.65.02-.072.05-.15v-.1q2.768-11.954 4.85-24.1.6-1.3.85-2.7.35-1.7.5-3.45.05-.15.1-.25.05-.15.1-.25.05-.15.1-.25.25-3.1.9-6.15 1.05-4.85 1.55-9.85 1.5-11.45 3.8-22.8 2.45-12.2 4.1-24.4.3-1.45.55-2.95.262-1.744 0-3.45.066-.098.1-.2-.05-.25-.1-.45-.1-.25-.2-.4-.2-.3-.45-.6-.45-.3-1-.4l-.5-.1h-.45q-7.4-.45-15-.3-11.35.15-22.65-.05m-5.9 6.5q.57.25 1.15.35.05.207.05.4.05.15.15.25l.2.3q.1.1.15.2.05.55.25 1 .25.5.65.95.7 2.9.4 5.9-.37 3.25-.9 6.5-.353 1.3-.75 2.6-.703 1.636-1.25 3.35-.673 2.02-.35 3.75-.185 1.247-.3 2.5-.05.15-.15.25-.05.15-.1.25v.5q-.55 1.4-.9 2.9-.45 1.85-.55 3.75-.1.1-.15.25l-.1.2q-.05 1.25-.35 2.45-.3 1.1-.4 2.25-.5 1.15-.7 2.45-.15 1.2-.05 2.45-.05.15-.1.25-.1.15-.1.25 0 .25-.05.5-.1.45-.05 1v.45q-.1.15-.15.25-.05.15-.1.25 0 1.4-.25 2.7-.25 1.2-.15 2.45-.1.15-.15.3l-.1.2q-.35 2.2-.45 4.45-.2 3.15-1.2 6.15-.3 1.35-.5 2.7-.15 1.2-.25 2.45-.05.15-.15.25-.05.1-.1.25-.3 2.2-.75 4.4-.65 2.8-.6 5.7-.1.1-.15.25-.1.1-.1.2 0 .25-.05.5-.1.35-.05.75v.5q-.1.1-.15.25-.05.1-.1.25-.2 2.6-.65 5.15-.6 3.7-1.4 7.35-.1.15-.15.25-.05.15-.1.25-.15 1.9-.55 3.7-.5 2.2-.85 4.45-.05.1-.15.25l-.1.2q.05 1.3-.3 2.5-.35 1.25-.9 2.45l-.9 4.2q-.65 3.05-2 5.85-.5.35-.95.8-.2.2-.4.45-.05.1-.1.25-.05.1-.1.25-.05.1-.05.25-.05.056-.1.1-2.474.107-4.9.25-.1.05-.25.1-.1.05-.25.15-5.4 0-10.8-.1-12.85-.15-25.6.05-12.8.25-25.55.45-12.8.25-25.55.3-12.2 0-24.35-.4-1.358-.334-2.75-.65.15-.243.25-.5.85-2.2 2.4-3.95.25-.1.55-.15l.4-.1q.15-.05.25-.15.2-.15.3-.3.1-.05.1-.2v-.05q.153.043.3.05 5.45 1.25 11.05.9 7.85-.5 15.75 0 1.4.95 3.15.95t3.45.2q5.7.95 11.55.9 8.6-.05 17-1.15.95 0 1.95.05.8.05 1.5-.35 7.85.05 15.7.2 11.51.242 22.8-.05.655.278 1.4.2.5-.05 1-.2.1-.05.2-.15l1-.7q.057-.034.1-.1.662-.02 1.3-.35l.6-.8q.2-.35.35-.7.15-.35.25-.75 2.05-4.45 3.3-9.3 1.3-5 2.05-10.1.85-3.65 1.9-7.35.9-3.05.95-6.2.35-.55.35-1.2 0-.75.15-1.5.1-.6.15-1.2.3-.45.45-.95.5-1.95.65-3.95.1-1.25.3-2.5.3-.3.3-.7v-.5q.05-.25.05-.5.3-.55.4-1.25.05-.6.15-1.2.05-.55.35-1v-.5q.25-.55.45-1.2.25-1.2.55-2.45.25-.9.6-1.75v-.5q.4-.55.55-1.2.15-.85.35-1.75.15-.7.1-1.45.35-.45.4-1 .15-1.1.4-2.2.2-.85.2-1.75.05-.1.15-.25.05-.1.1-.25.4-3.8 1.15-7.6.55-2.95 1.05-5.9.05-.1.1-.25.05-.1.1-.25.1-.1.1-.25.85-4.1 1-8.35.15-3.4-.3-6.65.2-3.1-.75-6.1-1.6-5.15-6.25-7.65-.1-.15-.25-.25-.15-.15-.3-.25-.25-.1-.5-.15v.05q-.2 0-.4.05-.107.027-.25.05-.35-.073-.75-.15-3.75-.8-7.3-1.95h-.5q-.95-.4-1.95-.6-.75-.1-1.5-.05-3-.5-6.15-.55-2.195-.042-4.35.1-3.573-.769-7.45-.65-12.8.3-25.55.3t-25.6-.05q-12.05-.1-23.85 1.4-.143.086-.3.15-1.35-.9-2.45-2.05-1.15-1.25-2.5-2.2.7-.15 1.4-.25.142-.013.25-.05 7.053-.105 14.2.05 12.5.2 25.05.15 7.4.45 15 .5 12.65.1 25.1-.4 9.6 0 19.15-.1 12.6-.15 25.1.55m12.65.05q.1-.087.2-.2.15-.1.3-.15.4-.15.8-.25.15 0 .3-.1h.15q.9-.2 1.75-.3.75-.05 1.4-.4 5-.1 9.95-.15 7.15-.1 14.15.5.15.1.3.15.1 0 .15.05l.2.1q.426.543 1 .75-.91 4.855-1.8 9.75-2.2 12.2-4.2 24.4-.35.85-.55 1.75-.15.7-.1 1.45-.6 1.25-.7 2.7-.1 1.7.05 3.45-.55 1.05-.6 2.2-.1 1.2-.05 2.5-.49 1.125-.65 2.35-4.272-.35-8.75-.3-4.2.05-8.35-.1-6.7-.293-13.35 0-.688-.1-1.4-.1.21-.95.45-1.9 3-11.85 4.75-24.15 2.05-8.2 3.1-16.7.3-2.35.95-4.6.389-1.37.55-2.7m-36.6 7.95h.5q.25 0 .5.05.1 0 .25.05 1.15.45 2.45.7 1.35.3 2.6.8 2.742 1.169 5.4 1.05.017.242.1.45.05.1.1.25.05.1.1.25l.1.5q.05.1.15.2l.5.5q.35.4.75.75 0 .15.05.25.15.35.3.75.1.25.1.5-.05.4.25.7.4 3.85.65 7.65.2 2.8.2 5.65-.3.6-.35 1.25-.05 1.1-.5 2.15-.35.85-.3 1.75-.1.15-.15.25-.1.15-.2.25 0 .35-.05.75-.3 2.1-.85 4.15-.3 1.35-.5 2.7 0 .15-.05.25-.1.25-.15.5l-.1.5v.75q-.1.1-.15.25-.1.35-.15.75v.7q0 .4-.05.75-.3.3-.3.75.05.25 0 .5v.45q-.25.35-.25.75-.05.25-.05.5-.05.25-.05.5-.05.1-.15.25-.25.45-.35.95l-.2 1q-.1.35-.05.75-.8 4-2 7.85-1 3.3-1.6 6.65-.9 3.6-1.65 7.3-.6 2.8-.65 5.75-.3.4-.35.95-.15 1.9-.7 3.7-.35 1.2-.55 2.45-.1.15-.2.25-.05.15-.15.25-.05.15-.05.25-.1.5-.2.95-.1.4-.15.75-.05.4 0 .75-.05.15-.1.25-.25.45-.35 1-.05.5-.15.95-.1.4-.05.75-.3.6-.35 1.25 0 .65-.2 1.25-.1.45-.1.95-1 3.8-2.25 7.55-1.05 3.2-1.8 6.45-.05.15-.15.25-.1.15-.15.25l-.2.5q0 .1-.05.25-.15.1-.25.25-.1.1-.15.25-.05.1-.1.25l-.1.2q-.05.15-.15.3-.374.187-.75.45-.098.004-.2 0-.98-.035-1.8.35-7.878.54-15.9.4-11.9-.15-23.6.5-3.2.25-6.4.35-3.75.15-7.4.7-3.45-.05-6.85 0-4.25.1-8.4.35l-.2-.1q-.6-.25-1.25-.25h-.75q-.9-.45-1.95-.3-1 .1-1.95.05-.25-.1-.55-.2-.2-.05-.45-.1h-.25q-3.55-.4-7.15-.4-4.45 0-8.85-.25-2.2-1-4.6-1.35-2.6-.35-5.2-.3-.6-.3-1.25-.35h-.75q-1-.35-2-.8-1.219-.542-2.25-1.4-.265-.754-.7-1.45 0-3.1-.05-6.15-.05-4.1.05-8.15.45-.9.65-1.95.15-.95-.05-1.95.6-1.7.7-3.45.15-2.35-.05-4.7.35-1.95.5-3.9.2-2.85.4-5.65.05-.15.1-.25.05-.15.15-.25.05-.15.1-.25 0-1 .15-2 .15-.95.15-1.95.6-1.25.5-2.7-.1-1.85.15-3.7 1.8-7.55 3.2-15.25 1.1-6.25 2.3-12.45 2.35-12.2 6.3-23.9.3-.4.6-.75l.3-.5q.134-.456.2-.95.166-.023.3-.1l.2-.3q.15-.2.35-.4.05-.1.15-.15.25-.05.5-.15.6-.25 1.25-.4.35-.1.75-.2.25-.15.45-.3.35-.25.75-.35.25-.1.5-.25h.25q.9 0 1.75-.15.5-.1.95-.4 7.55-.1 15-.45 11.8-.5 23.6-.2 8.5.7 17.2.65 9.145-.076 18.1-.05 1.336.331 2.8.3 3.25-.1 6.4.1 1.3.6 2.7.55 1.5 0 2.95.25.85.4 1.75.55.65.1 1.2.45m25.9 47.75q.088-.835.2-1.7.373.06.75.05 1.46 0 2.85-.3 1.09.082 2.2.05 3.65-.1 7.25-.05 8.35.1 16.7.35 1.1.05 2.1-.25.164-.047.3-.1.006.05 0 .1-.4 1.4-.75 2.9-.5 1.95-.65 3.95-.1.15-.2.25-.05.15-.15.25 0 1-.2 2-.15.7-.1 1.45-.218.502-.4 1-.988-.26-2.1-.3-2.2-.05-4.1.85-.1.1-.15.25l-.1.4q0 .15.05.3.1.25.25.45 1.15.6 2.5.6 1.64 0 3.25-.1-.076.863-.2 1.7-.35.8-.55 1.7-.1.75-.05 1.5-.174.31-.3.6-1.056-.3-2.25-.3-7.9.15-15.7.75-1-.55-2.25-.75-3.25-.55-6.55-.7-2.118-.08-4.15.2.388-2.007.7-4.05.382.075.75.1 8.3.55 16.5-.45 1.35-.15 2.65.1 2.8.45 4.1-1.5l-.1-.3q0-.05-.05-.15-.1-.15-.25-.2-3.25-.85-6.75-.65-3.6.2-7.25-.05-4.704-.341-9.15.35.782-5.101 1.35-10.3m10.05 19.9q.1-.05.15-.15.1-.05.2-.15l.15-.15q.6.15 1.15.3 3.8.8 7.8 1 3.85.15 7.7.5.295.026.55 0-.129.476-.2.95-.15 1-.05 2-.218.387-.35.8-.438-.1-.9-.1l-16.7.4q-6.736.126-13.45 0 .042-.468 0-.95.387-1.82.75-3.65 1.39.192 2.8.25 5.4.2 10.4-1.05m-14.95 9.15q.233-.621.45-1.25 8.27-.349 16.5-.2 7.435.184 14.75.15-.403.76-.45 1.6-.05.85-.15 1.75-.276.645-.5 1.3-.05-.1-.15-.2-.9-.45-1.9-.45-.85-.05-1.7 0-.1 0-.15.05-.1.05-.2.05-.05.05-.15.1h-15.25q-2.6 0-5.2.05-3.398.04-6.5.7.028-.34.05-.7.1-.15.15-.25.05-.15.1-.25v-.25q0-.75.25-1.5.1-.35.05-.7m-1.05 6.2.05-.2q2.96.534 6.05.4 3.4-.2 6.8-.2 8.05-.1 15.9-1.1h1.55q.469 0 .9-.2-.165.887-.2 1.8-.4.8-.55 1.7-.15.6-.1 1.25-.084.251-.2.5-1.448-.326-3.05-.2-5.6.45-11 1.3-.1.1-.15.25l-.1.4v.05l.1.4q.05.1.15.25.05.1.15.15.05.05.15.1 4.75.35 9.45.65 1.4.1 2.8.35.232.05.45.05-.479 1.915-.8 3.8-7.2.018-14.35.3-5.15.25-10.4.15-3.376-.039-6.45.7v-.45q.55-2 1.15-4.1.194-.685.35-1.4 2.18.354 4.45.4 5.85.1 11.45-1.05.05-.15.1-.35 0-.1-.05-.2 0-.05-.05-.1-2-.4-4-.7l-2.5-.4q-4.601-.663-9.05.1.084-.866.1-1.75.5-1.3.9-2.65m27.9 13.65q-.366 1.129-.6 2.3-.193 1.075-.35 2.15-.122-.072-.3-.15-1.55.2-3.15.25-2.45.05-4.75.6l-.1.2q-.1.15-.15.35h.05q.05.25.15.45.05.15.1.25 1.6.4 3.35.45 2.242.046 4.45.05-.28.886-.5 1.8-.186.837-.3 1.7-.174-.013-.4 0-3.75.3-7.4.75h-2.2q-1.65.05-3.15.4-.1.1-.15.2l-.1.3q.1.2.15.4.05.1.15.2 1.2.25 2.5.35 1.95.15 3.8-.3 1.5.05 2.95.25 1.713.214 3.4.15v.8q-.65 1.7-1.15 3.4-.384.164-.75.45-.5.1-.95.35-.25.15-.45.3-1.3.05-2.55.3-1.5.25-2.95.65-.45 0-.8.05-7.9.2-15.75-.1-3.599-.138-7-1.1.367-1.547.55-3.15.237-.624.4-1.25 2.36.368 4.85.2 6.4-.45 12.75-1.5l.1-.2q.05-.2.05-.45 0-.05-.05-.1-.7-.25-1.45-.3-2.95-.35-5.95-.55-4.864-.383-9.7.15.168-.928.2-1.9.24-.778.45-1.6 1.636.23 3.35.15 3.15-.2 6.25-.15 5.85 0 11.35-1.35.1-.1.15-.2l.1-.3q-.05-.1-.1-.25-.05-.1-.15-.15-.7-.35-1.45-.35-3.55-.2-7.2-.55-5.842-.464-11.6.1.183-.638.4-1.25.05-.9.3-1.7.086-.372.2-.75 3.812.399 7.65.35 6.9-.05 13.7-1 2.2 0 4.4-.05 2.686-.119 5.35-.1m-150.05-99.3q.1.3.2.55-.106.37-.25.75-.333.51-.35 1.15-.15.558-.3 1.1-1.85 3.05-2.9 6.6-1.5 5.1-2.2 10.35-.45.8-.65 1.65-.25 1.15-.4 2.3-.6.9-.9 1.9-.4 1.35-.35 2.75-.4 1.85-.85 3.7-.6 2.55-.6 5.15-.3.7-.55 1.45-.2.75-.2 1.5-1.8 6-2.95 12.25-1.8 9.9-2.3 20.2-.5 1.4-.65 2.95-.2 2.05-.1 4.2-.45.9-.35 1.95.05 1 .05 2-1.15 4.7-1.6 9.55-.425 4.275-.05 8.35-.1.411-.1.85 0 .85-.2 1.7-.6.3-1.1.7-1.15.8-1.85 2 0 .15-.05.25-.05.15-.1.25-.3.4-.65.75l-.6.5-.6.1q-.2.05-.4.05-.3-.25-.45-.6-.286-.591-.75-1 .397-8.02.65-16.2.05-.1.15-.25.05-.1.05-.2 0-3.55.6-6.95.8-4.9 1.7-9.8.35-.65.4-1.45.05-.5.05-1 .05-.1.15-.25.05-.1.05-.25.2-2.35.95-4.7.95-3.1 1.3-6.35.45-2.15.85-4.2.8-4.25 1.65-8.55 2.05-10.45 3.9-20.95.75-2.8 1.4-5.55 1.05-4.25 1.6-8.45.4-1 .65-1.95.9-2.9 1.7-5.8 1.29-4.65 2.8-9.2.497 1.022 1.35 1.65 1.55 1.25 3.15 2.5m150.8 51.25q-.15.05-.35.05-.75.2-1.15.9-.2.45-.6.8-.05.15-.1.35-.15.5 0 1.05l.1.5q.3.4.7.65.75.5 1.55.3 2.7-.7 1.4-3.1-.05-.35-.15-.65l-.2-.3-.15-.15q-.25-.15-.55-.25-.2-.1-.5-.15m-9.25.15q-.2.05-.4.05-1.15.4-1.35 1.55-.15.8.1 1.6.05.05.1.15.1.05.15.15l.15.15q.1.1.2.15.55.35 1.25.15.7-.2 1.2-.7l.1-.2q.05-.05.05-.1l.1-.2q.05-.05.05-.15.1-.7-.1-1.4-.3-1.2-1.6-1.2m8.2-27.75q0-.55-.45-.95-.35-.15-.75-.15-.9-.15-1.85-.25-.35-.05-.7 0-.25.05-.45.1-.15.05-.25.15l-.15.15q-.15.15-.25.3-.146.792-.3 1.55-.055.014-.1 0-1.75-.45-3.55-.45v.05q-.15 0-.35.05-.05 0-.15.05-.2.1-.4.25-.6.5-1.05 1.1-.15.15-.25.3-.05.1-.15.15-.05.1-.1.15-.05.2-.1.35 0 .05-.05.15-.05.05-.05.15-.05.1-.1.15-.05.1-.1.15-.05.5-.3.95-.35.6-.4 1.25 0 .15-.05.3-.1.2-.15.35 0 .4-.05.8v.95q-.05.05-.05.15-.05.05-.1.15-.05.05-.05.15 0 .3-.05.65-.05.95-.1 1.85 0 .35.05.65l.1.3q.05.1.1.15.15.2.3.35.05.05.1.15.05.05.1.15l.15.15q.89 3.184 4.2 2.4.02.22.05.4l.2.3q.15.5.55.8 2.85 1.75 4.9-.35.078-.371.15-.75 1.183.191 2.15-.65.05-.05.1-.15.05-.1.1-.15.1-.15.15-.3.6-.45 1.3-.65.6-.2 1.15-.65.3-.35.5-.75.1-.25.1-.5.05-.35.25-.6.55-2.85.15-5.7-.45-3.65-3.85-4.2v.05h-.05q-.027-.752-.05-1.5m-2.55 1.4q.3.55 0 1.65-.4 1.45-.3 3-.25.75-.4 1.55-.15 1.25-.1 2.5-.35.7-.45 1.45-.1 1.05-.05 2.2-.1.25-.2.45-.1.35-.2.65-.6-.05-1.15-.05.15-.45.25-.95.15-.8.2-1.6.25-.4.3-.9 0-.8.1-1.6.6-1.45.85-2.95.5-2.7 1.15-5.4m1.6 8.35q.37-2.54.75-5.1.322.18.7.25.05.15.1.25.45.85.5 1.8.05.55.35 1.1 0 .3.05.6.05.8-.15 1.6-.1.45-.3.85-.9.05-1.7.5-.353.177-.65.4.183-1.111.35-2.25m-7.7-5.9q.05-.1.15-.2l.15-.15q1.15-.25 2.35-.05.13.024.25 0-.276 1.197-.6 2.35-.7 2.7-1 5.55-.109.254-.2.5-.62-.253-1.55-.15-.1-.15-.2-.35-.019-.046-.05-.1v-1.9q.2-1.25.3-2.5.11-1.436.2-2.85l.2-.15m19.95-6.05q-.15-.05-.35-.1-2.3-.15-4.05 1.2-.05.25-.05.45v.35q.05.05.05.15 1.8 1.4 4.2.3.1-.05.2-.15l.15-.15q.35-.5.35-1.1.05-.45-.3-.8-.1-.1-.2-.15M458.35 110q-.05-1.45-.15-2.85-.28-3.359-3.1-4.4-.321-1.2-1.3-2.15-.05-.05-.05-.15-.05-.1-.1-.15-.05-.1-.1-.15 0-.1-.05-.15-.45-.4-.95-.4-.45-.05-.85-.05v.05q-.2 0-.35.05h-.15q-.1.05-.2.15-.15.1-.35.3-.05.05-.1.15-.05.25-.15.5-.1.2-.25.45-.1.25-.4.45-.113.378-.25.75-.65-.1-1.35-.15-1.75.3-3.2 1.4-1.55 1.2-2.5 2.9-.25.95-.4 1.9-.2 1.4.1 2.8.35 1.4.8 2.85l.2.3q.5.6 1.15.95.55.25 1.1.45.05.05.05.1.05.1.1.15.2.2.4.3.4.2.8.3.165-.012.3-.05.014.7.05 1.4 1 1.6 2.9 1.2 2.65-.49 2.95-2.9 2.234.283 3.4-1.6.1-.05.2-.15.45-.55.9-1.05.25-.35.5-.65.45-1.4.4-2.85m-6.2-7.1q.6.45.4 1.6-.2 1-.15 2.05-.45.8-.75 1.7-.35 1.1-.2 2.2-.05.1-.05.2-.1.35-.1.75 0 .25.05.5-.55.9-.75 1.85l-.5 2.4-.6.1h-.25v-1.2q.05-.15.1-.35.1-.3.1-.6v-.35q.65-1.9.9-3.9.4-3.3 1.1-6.45.1-.1.2-.15l.3-.2q.1-.05.2-.15m-5.8 5.15q.05-.05.1-.15.2-.3.35-.65l.1-.3q.1-.25.2-.45t.25-.35q.05-.05.1-.15l.2-.3.3-.3q.419-.114.75-.25-.036.222-.1.45-.45 1.7-.3 3.45-.1.15-.15.35 0 .05-.05.1v.2q-.05.15-.05.3-.577 1.607-.8 3.35-.389-.49-.85-.9 0-.15-.05-.3-.05-.55-.2-1.1-.2-.95-.05-1.9.1-.55.25-1.1m8.4-.55q.128.324.2.65.1.25.05.5.05.05.05.15.05.05.1.15.05.1.1.15.05.1.1.15.05.1.05.15.05.35.1.65l.1.8q0 .25-.1.45-.2.3-.4.65-.1.15-.15.3l-.1.3-.15.15q-.1.1-.15.2-.1.05-.15.15-.05.05-.1.15-.351.04-.75.05.258-.953.4-1.95.15-1.25.35-2.5.1-.15.2-.35.136-.474.25-.95m10.7-6.55q-.5-.5-1.1-.8-1-.45-2.15-.25v.05q-.2.05-.4.05-.35.05-.6.3-.2.15-.35.3l-.15.15q-.05.15-.1.35-.05.2 0 .45v.15q.05.1.05.15.05.1.15.15.5.7 1.4.75.15.05.3.05.9.6 2 .3.65-.15 1.05-.7l.1-.3q.15-.35 0-.65l-.1-.3-.1-.2m-51.9-15.8q2.25.6 4.65.4 3.95-.3 7.85-.4 1.15.5 2.5.4 1.95-.15 3.9-.25.45.3 1 .3.6.05 1.25.05 2.1.55 4.4.35 3.9-.25 7.6-.75h.75q11.7.35 23.35.15 2.95-.05 5.85.35 1.236.157 2.4.15.082.088.15.15.057.049.1.1-1.333 8.128-2.95 16.3-1.2 6.25-2.55 12.4-2.65 12.05-4.2 24.3-.35.8-.55 1.7-.15.7-.1 1.45-.9 2.8-1.2 5.7l-.7 8.6q-.7 1.4-.95 2.9-.3 1.85-.5 3.7-1.6 6.1-2.05 12.55-.85 11.1-3.3 21.9-.8 1.55-1.3 3.15-.75 2.3-1 4.7-1 2.75-1.7 5.6-1.1 4.65-1.55 9.4-.05.15-.1.25-.35.55-.3 1.25v.75q-.45.75-.4 1.7.05.5.05 1-.4 1.05-.7 2.15-.234.834-.3 1.65-.045.059-.1.1-.45.3-.9.55h-2.7q-.15.05-.25.1-.15.05-.25.15-9 0-17.95.1-12.5.15-25.1-.05-12.55-.9-25.3-.95-12.7-.05-25.1 1.1-8.25.1-16.45.4-12.7.45-25.1-.8-2.45-.15-4.9-.25-3.8-.15-7.4.65-7.1.4-14.25.2-12.65-.35-25.1.5-.1.2-.2.35l-.2.5.1.4q.05.1.1.15.05.1.15.15.8.65 1.95.65 6.246.045 12.5.3.22.274.45.55.1.35.3.7.05.2.2.35.5.45.95.9.45.45 1 .7.35.45.75.8l.5.4q5.9.15 11.8.35 8.05.3 16.2.25 6.05 1.05 12.3 1 12.8-.05 25.6-.3 12.7-.25 25.55-.15 12.8.05 25.55 0 12.85 0 25.6.4 2.35.05 4.6.4 6 .85 8.7-4.1.3-.3.65-.55.44-.403.55-1 6.071.092 12.15-.1l.2-.1.3-.1q.1-.1.2-.1 1-.05 2 .05.9.05 1.7-.25.5-.4 1.05-.75.35-.25.7-.55.1-.1.2-.25.407-.664.45-1.3.556-.779.75-1.65.15-.9.2-1.75.45-.8.4-1.7v-1.5q1-6.9 2.8-13.7 2.5-9.2 4.05-18.55 2.05-12 2.75-24.3.35-.8.5-1.75.1-.6.15-1.2.65-3.4 1.2-6.9.65-4.4 1.35-8.8 1.95-12.2 4.15-24.4.25-2.15.65-4.2 2.6-12.25 5.45-24.5 1.187-5.158.85-10.15-.099-.084-.25-.2.076-.104.1-.25-.05-.25-.15-.55-.25-.35-.5-.65-.65-.85-1.45-1.4-.75-.15-1.5-.1-.106.007-.2 0-.305-.105-.6-.25-1.06-.08-2.15-.05-6.35.2-12.55.8-3.05.05-6.15 0-5.65 0-11.05.75-1.85 0-3.7-.25-2.9-.4-5.9-.25-.45-.25-1-.3-.6-.05-1.2-.05-1.15-.45-2.45-.4-2 0-3.95-.05-1.75-.5-3.7-.6-12.7-.55-25.55-.3l-6.25.15q.142-.295.3-.6 1.2-2.25 1.95-4.7.75-1.2 1.25-2.5.6-1.65 1.05-3.4.35-.75.75-1.45.25-.5.05-1 0-.15-.1-.2-.35-.25-.7-.45H395.7q-.7 0-1.15.75-.3.55-.4 1.2-.1.15-.2.25-.05.15-.15.25l-.4.5q-.05.25-.1.45-.1.3-.25.5l-.3.5q-.05.15-.05.25-.05.15-.05.25-.3.5-.55 1-.2.35-.35.75-.1.1-.2.25l-.2.2q-.15.25-.35.5-.75.45-1.2 1.25-.55 1.05-1.25 1.95l-.1.5q-.05.25-.15.5-.05.25-.15.5-.1.1-.15.2-.15.15-.25.3-.15.2-.25.45v.5q-.207.326-.3.7-7.137.237-14.25.55-1.814 0-3.65.05-.059-.202-.15-.4 0-.25-.05-.45-.05-.3-.1-.5-.05-.15-.1-.25-.4-.6-.9-1.1l-.15-.15q-.2-1-.35-1.95-.5-1.25-.9-2.5-.4-1.15-1-2.2-.65-2.35-1.25-4.65-.9-3.4-2.65-6.4-.4-.25-.8-.45-.3-.15-.6-.2v.05q-.4.05-.75.1-1.75 1.25-1.2 3.25t1.45 3.9v.5l.1.2q.05.15.15.25.1 1.5.5 3 .5 1.7 1.55 3.15.35 1.4 1.1 2.7.65 1.15.85 2.5.45.75 1.05 1.4.15.16.3.3-.276.037-.55.05-12.8.6-25.6.1-12.85-.5-25.55.2-12.281.731-24.5 1.65.017-.124 0-.25-.2-.15-.4-.25-.35-.1-.65-.2V84q-.4.15-.8.25-.2.1-.35.2-.45.7-.75 1.5-.1.35 0 .7-.25.45-.4 1-2.85 12.3-6.1 24.5-3.15 12-5.8 23.95l-.7 2.5q-.45 1.3-.6 2.65-.05.15-.1.25-.25.45-.25 1 .05.25.05.5-.4.85-.55 1.7-.15.6-.15 1.25-.65 1.5-.5 3.2.15 1.6-.05 3.15-1.1 4-1.95 8.05-1.3 6.3-2.05 12.65l-.1.2q-.1.15-.15.25-1.25 7.55-2.5 15.05-2.05 11.9-4.05 23.8-.05.15-.1.25-.45.8-.35 1.75 0 .5.1.95-.2 1.15-.45 2.25-.2.85-.05 1.7-.15.35-.2.75v.5q-.05.1-.05.25-.4 1.05-.55 2.2-.15 1.2.3 2.2.35.25.7.45.3.15.65.2.2-.05.45-.1.2-.05.35-.15.65-.45.8-1.2.05-.35 0-.75.45-1.1.65-2.2.25-1.1.35-2.25.75-1.1.8-2.4.1-1.25.1-2.5.55-2 .9-4.15l.8-5.2q.35-.95.5-1.95.1-.8.5-1.5.1-.85.25-1.7.1-.65.4-1.25.15-1.2.35-2.4 1.95-12.35 4.1-24.6 2.05-11.85 3.1-23.9 2.6-11.6 5.65-23.3.8-3.1 1.55-6.25 3-12.3 6.5-24.45 1.09-3.7.95-7.2 11.233.541 22.4-.2 12.65-.8 25.55-.4 12.75.35 25.55-.1 12.75-.45 25.6-.4 12.5.05 25.1-.1z"/><path fill="red" d="M436.3 157.7q.5-.75.6-1.7.25-1.9-1.8-2.15-.85 0-1.5.75-.25.25-.4.6-.1.65.1 1.25.65 2.4 3 1.25z"/></g></defs><use xlink:href="#a" transform="matrix(.26458 0 0 .26458 -68.425 -16.232)"/><use xlink:href="#b" transform="matrix(.26458 0 0 .26458 -68.425 -16.232)"/><use xlink:href="#c" transform="matrix(.3466 0 0 .3466 6.757 10.716)"/><use xlink:href="#d" transform="matrix(.26458 0 0 .26458 -68.425 -16.232)"/></svg>
