<svg xmlns="http://www.w3.org/2000/svg" width="20" height="16" viewBox="0 0 5.292 4.233" version="1.1" xml:space="preserve"><path d="M2.646 3.307c.33 0 .612-.115.843-.347.232-.231.347-.513.347-.843 0-.331-.115-.612-.347-.844a1.148 1.148 0 0 0-.843-.347c-.33 0-.612.116-.844.347a1.148 1.148 0 0 0-.347.844c0 .33.116.612.347.843.232.232.513.347.844.347zm0-.529a.639.639 0 0 1-.47-.192.639.639 0 0 1-.192-.47c0-.185.064-.341.192-.469a.639.639 0 0 1 .47-.192c.185 0 .342.064.47.192a.639.639 0 0 1 .191.47.639.639 0 0 1-.192.47.639.639 0 0 1-.47.191zM.529 4.233a.51.51 0 0 1-.374-.155A.51.51 0 0 1 0 3.704V.53A.51.51 0 0 1 .155.155.51.51 0 0 1 .53 0h4.233a.51.51 0 0 1 .374.155.51.51 0 0 1 .156.374v3.175a.51.51 0 0 1-.156.374.51.51 0 0 1-.374.155zm0-.529h4.233V.53H.53z"/></svg>
