<svg xmlns="http://www.w3.org/2000/svg" width="16" height="16" viewBox="0 0 16 16" fill="none"><path fill-rule="evenodd" clip-rule="evenodd" d="M4.153 13.74c0-.624.047-1.232.21-1.802C.68 11.074-.874 6.444 1.319 3.492c-.194-1.02-.126-2.029.466-3.014a.984.984 0 0 1 .923-.474c1.05.085 1.996.708 2.797 1.35 1.417-.283 2.886-.285 4.408.008.777-.61 1.696-1.232 2.717-1.353a.984.984 0 0 1 .957.462c.552.905.707 1.902.467 2.985.746 1.24 1.013 2.478.942 3.605-.152 2.424-1.868 4.358-4.035 4.885.241.888.316 2.048.224 3.05-.071.794-.583 1.005-1.091 1.005 0 0-.844-.037-.871-.984-.014-.499-.03-1.85-.063-2.136-.046-.407-.163-.788-.473-1.098a.976.976 0 0 1-.193-1.11.984.984 0 0 1 .984-.557c2.649.256 4.782-2.902 2.702-5.942a.975.975 0 0 1-.125-.846c.128-.407.17-.793.109-1.156-.515.253-.968.67-1.375 1.003a.987.987 0 0 1-.845.195c-1.55-.357-3.035-.357-4.455-.004a.985.985 0 0 1-.874-.202c-.416-.35-.872-.778-1.393-1.02-.081.444-.009.896.111 1.35a.975.975 0 0 1-.225.912c-1.924 2.093-.425 5.918 2.774 5.706a.987.987 0 0 1 .958.566.978.978 0 0 1-.187 1.094c-.322.33-.449.727-.505 1.146a22.055 22.055 0 0 0-.116 1.957c-.016.372-.255.798-.617.959-.485.216-.884.179-1.252.128-.525-.072-.97-.345-1.376-.736-.239-.23-.463-.51-.723-.751-.186-.173-.401-.329-.735-.274-.55.09-1.206-.145-1.318-.833-.09-.549.442-1.068.992-1.158 1.187-.195 1.954.298 2.592.94.192.19.367.398.548.58l.01.01Z" fill="#C2C2C2"/></svg>
