<svg xmlns="http://www.w3.org/2000/svg" width="20.031" height="16" viewBox="0 0 5.3 4.233" version="1.1" xml:space="preserve"><path d="M4.242 0a.51.51 0 0 0-.375.156.509.509 0 0 0-.155.373H1.596a.51.51 0 0 0-.374.156.512.512 0 0 0-.141.249L1.058.933H.53a.51.51 0 0 0-.373.155.51.51 0 0 0-.156.374v1.321c0 .146.052.27.156.374a.51.51 0 0 0 .373.155h.555a.513.513 0 0 0 .138.237.51.51 0 0 0 .374.155h2.116c0 .146.052.27.155.374a.51.51 0 0 0 .375.155h.529c.145 0 .27-.051.373-.155a.51.51 0 0 0 .156-.374V.53a.51.51 0 0 0-.156-.373A.51.51 0 0 0 4.771 0zm0 .53h.529v3.174h-.53zm-2.646.528h.79v.353h-.79Zm1.319 0h.797v2.117h-.797Zm-2.386.404h.53v1.321h-.53zm1.067.478h.79v.353h-.79Zm0 .882h.79v.353h-.79Z" /></svg>