<svg width="16" height="16" viewBox="0 0 16 16" fill="none" xmlns="http://www.w3.org/2000/svg"><path fill-rule="evenodd" clip-rule="evenodd" d="M15.989 1a1 1 0 0 0-1-1H1a1 1 0 0 0-1 1v13.989a1 1 0 0 0 1 1h13.989a1 1 0 0 0 1-1V1Zm-2 1v11.989H2V2h11.989ZM3.159 7.532v4.608a1 1 0 0 0 2 0V7.532a1 1 0 0 0-2 0ZM8.305 6.9a1.002 1.002 0 0 0-1.775.632v4.608a1 1 0 0 0 2 0V9.402a1.51 1.51 0 0 1 1.045-.875c.353-.084.733-.055.973.192.166.17.241.431.241.768v2.674c.005.629.543.98 1.059.975.48-.005.941-.317.941-.999v-2.65c0-1.225-.523-2.037-1.223-2.511-.899-.608-2.193-.618-3.261-.076ZM4.159 3.805a1 1 0 1 1 0 2 1 1 0 0 1 0-2Z" fill="#C2C2C2"/></svg>
