<svg width="100%" height="100%" viewBox="0 0 200 200" version="1.1" xmlns="http://www.w3.org/2000/svg" xmlns:xlink="http://www.w3.org/1999/xlink" xml:space="preserve" xmlns:serif="http://www.serif.com/" style="fill-rule:evenodd;clip-rule:evenodd;stroke-linejoin:round;stroke-miterlimit:2;">
    <g transform="matrix(0.796813,0,0,0.911987,15.1394,11.8558)">
        <path d="M232,96.651C232,36.133 175.765,-13 106.5,-13C37.235,-13 -19,36.133 -19,96.651C-19,157.168 37.235,206.301 106.5,206.301C175.765,206.301 232,157.168 232,96.651Z" style="fill:rgb(255,177,0);"/>
    </g>
    <path d="M49.3,186.168C52.866,147.282 56.705,116.458 61.903,96.297C65.502,97.667 68.839,99.189 71.191,100.795C71.021,101.175 70.864,101.574 70.746,101.966C70.722,102.047 70.701,102.13 70.683,102.213C68.862,110.876 70.11,116.533 72.104,120.229C74.298,124.297 77.485,126.188 79.426,127.042C89.046,131.275 96.591,128.259 101.786,124.411C104.472,122.421 106.64,118.941 107.909,115.136C108.467,113.461 108.851,111.731 109.051,110.059C114.896,110.114 128.214,110.277 134.562,110.671C134.769,113.957 135.824,119.046 139.873,123.116C142.128,125.382 144.619,126.629 147.118,127.152C147.616,145.508 144.869,171.081 141.85,190.806C129.12,196.717 114.94,200 100,200C81.494,200 64.156,194.962 49.3,186.168ZM142.94,89.732C141.798,84.514 140.301,78.718 138.324,72.23C131.131,48.623 104.24,52.042 96.724,53.911C80.621,57.917 70.953,67.492 64.069,88.771C63.887,89.334 63.706,89.908 63.526,90.497C67.741,92.081 71.652,93.923 74.504,95.825C78.195,92.028 85.677,87.282 95.291,88.96C98.06,89.444 100.722,91.069 102.951,93.35C105.912,96.38 108.097,100.544 108.869,104.061C114.576,104.12 128.127,104.297 134.899,104.695C135.029,103.521 135.212,102.139 135.449,100.941C135.883,98.745 136.594,96.628 137.546,95.274C138.726,93.596 140.688,91.416 142.94,89.732Z" style="fill:rgb(0,179,255);"/>
    <path d="M76.526,103.588C73.899,116.299 79.243,120.406 81.842,121.55C88.888,124.65 94.409,122.408 98.214,119.589C100.029,118.245 101.36,115.809 102.216,113.239C103.104,110.576 103.472,107.728 103.055,105.57C102.55,102.961 100.887,99.822 98.66,97.544C97.36,96.214 95.874,95.153 94.259,94.871C85.465,93.335 79.018,98.944 77.622,101.457C77.538,101.609 77.443,101.75 77.337,101.88C77.07,102.312 76.746,102.9 76.526,103.588ZM140.556,108.356C140.429,109.66 140.23,114.968 144.127,118.884C148.282,123.061 153.748,121.368 156.727,119.177C158.485,117.884 159.545,115.85 160.214,113.655C161.362,109.889 161.331,105.6 160.82,102.701C159.636,95.978 153.967,93.614 150.605,92.942C149.616,92.744 148.592,93.226 147.595,93.82C145.452,95.098 143.526,97.202 142.454,98.726C141.893,99.524 141.591,100.811 141.335,102.105C140.839,104.613 140.698,107.212 140.611,108.003C140.597,108.127 140.579,108.244 140.556,108.356Z" style="fill:white;"/>
    <path d="M109.051,110.059C108.851,111.731 108.467,113.461 107.909,115.136C106.978,117.928 105.562,120.545 103.813,122.527L103.75,122.598C103.134,123.288 102.477,123.899 101.786,124.411C98.701,126.695 94.789,128.687 90.104,129.042L89.546,129.076C89.234,129.091 88.919,129.098 88.6,129.098L88.216,129.094L87.634,129.074L87.241,129.05C86.979,129.032 86.715,129.009 86.448,128.98L86.248,128.958C85.149,128.828 84.016,128.606 82.848,128.277C82.564,128.197 82.277,128.111 81.989,128.018C81.729,127.935 81.468,127.846 81.205,127.752L80.985,127.672C80.765,127.591 80.544,127.506 80.321,127.417L79.651,127.14L79.426,127.042C78.422,126.6 77.085,125.881 75.723,124.726C75.522,124.556 75.321,124.376 75.12,124.185L74.869,123.942C74.091,123.173 73.327,122.25 72.635,121.143L72.262,120.514C72.209,120.42 72.156,120.325 72.104,120.229C70.11,116.533 68.862,110.876 70.683,102.213C70.701,102.13 70.722,102.047 70.746,101.966C70.818,101.728 70.904,101.487 70.999,101.249L71.191,100.795L70.504,100.346L70.383,100.271C69.797,99.907 69.163,99.548 68.489,99.194L67.948,98.916L66.929,98.417L66.505,98.218L65.632,97.823C65.457,97.745 65.281,97.669 65.104,97.592C64.075,97.147 63.001,96.715 61.903,96.297C60.603,101.337 59.389,107.044 58.242,113.377C54.837,132.186 52.031,156.517 49.38,185.301L49.3,186.168C47.365,185.028 45.471,183.824 43.62,182.567C47.179,144.353 51.052,114.203 56.22,94.325C49.888,92.324 43.744,91 41,91C38.812,91 38.186,93.018 38.279,94.657C38.308,95.17 38.406,95.667 38.58,96.097C38.666,96.311 38.888,96.624 38.931,96.684C40.434,97.293 41.184,98.996 40.609,100.522C40.024,102.071 38.292,102.854 36.743,102.269C34.359,101.369 32.484,98.446 32.288,94.996C32.019,90.229 34.635,85 41,85C44.031,85 50.844,86.378 57.846,88.556C58.016,88.002 58.187,87.458 58.36,86.924C66.083,63.054 77.212,52.583 95.276,48.089C104.151,45.881 135.569,42.602 144.064,70.481C145.923,76.581 147.369,82.087 148.501,87.085C149.612,86.867 150.718,86.845 151.782,87.058C156.754,88.053 164.978,91.716 166.729,101.66C167.37,105.298 167.394,110.679 165.953,115.404C164.897,118.869 163.056,121.971 160.281,124.011C158.388,125.403 155.878,126.607 153.119,127.147C153.569,144.57 151.203,168.128 148.403,187.49C146.268,188.677 144.084,189.789 141.85,190.806C143.399,180.681 144.877,169.016 145.882,157.575L145.937,156.936C146.06,155.51 146.176,154.088 146.283,152.673C146.976,143.55 147.324,134.735 147.118,127.152C146.667,127.058 146.216,126.94 145.767,126.796L145.695,126.773C145.408,126.68 145.121,126.576 144.835,126.461C144.695,126.405 144.556,126.346 144.417,126.284C143.808,126.016 143.204,125.697 142.61,125.322C142.418,125.201 142.226,125.074 142.036,124.942C141.297,124.425 140.574,123.82 139.873,123.116C139.291,122.531 138.771,121.924 138.306,121.305C137.783,120.609 137.33,119.897 136.939,119.18C136.506,118.388 136.148,117.591 135.852,116.805L135.757,116.546C135.68,116.33 135.607,116.116 135.538,115.903C135.219,114.909 134.995,113.945 134.839,113.043C134.692,112.186 134.607,111.386 134.562,110.671C133.769,110.622 132.866,110.576 131.883,110.534L131.131,110.503C130.545,110.48 129.935,110.457 129.305,110.436C126.369,110.338 123.022,110.262 119.804,110.204L118.018,110.173C116.841,110.154 115.696,110.137 114.61,110.123L113.032,110.102L111.565,110.085L109.051,110.059ZM133.618,138.737C133.771,138.408 134.08,137.693 134.13,137.203C134.192,136.603 134.195,135.987 133.964,135.567C132.599,133.089 128.515,129.16 125.147,125.518C124.023,124.302 124.097,122.403 125.313,121.279C126.529,120.154 128.429,120.229 129.553,121.445C133.285,125.481 137.706,129.926 139.219,132.672C140.175,134.407 140.427,137.156 139.782,139.53C139.089,142.078 137.405,144.051 135.261,144.636C133.788,145.039 131.945,144.911 129.841,143.481C126.774,141.395 120.354,133.539 117.152,128.352C116.282,126.943 116.719,125.093 118.128,124.223C119.537,123.354 121.387,123.791 122.257,125.2C125.054,129.731 130.536,136.698 133.215,138.519C133.333,138.599 133.491,138.679 133.618,138.737ZM76.526,103.588C73.899,116.299 79.243,120.406 81.842,121.55C88.888,124.65 94.409,122.408 98.214,119.589C100.029,118.245 101.36,115.809 102.216,113.239C103.104,110.576 103.472,107.728 103.055,105.57C102.55,102.961 100.887,99.822 98.66,97.544C97.36,96.214 95.874,95.153 94.259,94.871C85.465,93.335 79.018,98.944 77.622,101.457C77.538,101.609 77.443,101.75 77.337,101.88C77.07,102.312 76.746,102.9 76.526,103.588ZM140.556,108.356C140.429,109.66 140.23,114.968 144.127,118.884C148.282,123.061 153.748,121.368 156.727,119.177C158.485,117.884 159.545,115.85 160.214,113.655C161.362,109.889 161.331,105.6 160.82,102.701C159.636,95.978 153.967,93.614 150.605,92.942C149.616,92.744 148.592,93.226 147.595,93.82C145.452,95.098 143.526,97.202 142.454,98.726C141.893,99.524 141.591,100.811 141.335,102.105C140.839,104.613 140.698,107.212 140.611,108.003C140.597,108.127 140.579,108.244 140.556,108.356ZM142.94,89.732C141.798,84.514 140.301,78.718 138.324,72.23C131.131,48.623 104.24,52.042 96.724,53.911C80.621,57.917 70.953,67.492 64.069,88.771C63.887,89.334 63.706,89.908 63.526,90.497C67.741,92.081 71.652,93.923 74.504,95.825C78.195,92.028 85.677,87.282 95.291,88.96C98.06,89.444 100.722,91.069 102.951,93.35C105.912,96.38 108.097,100.544 108.869,104.061C114.576,104.12 128.127,104.297 134.899,104.695C135.029,103.521 135.212,102.139 135.449,100.941C135.883,98.745 136.594,96.628 137.546,95.274C138.726,93.596 140.688,91.416 142.94,89.732Z"/>
</svg>
