<svg xmlns="http://www.w3.org/2000/svg" width="50" height="50" viewBox="0 0 50 50" fill="none"><path fill-rule="evenodd" clip-rule="evenodd" d="M50 25C50 11.202 38.798 0 25 0S0 11.202 0 25s11.202 25 25 25 25-11.202 25-25Z" fill="#FFB100"/><path fill-rule="evenodd" clip-rule="evenodd" d="M12.326 46.542c.891-9.721 1.851-17.427 3.15-22.468.9.343 1.735.723 2.323 1.125a2.477 2.477 0 0 0-.127.354c-.456 2.166-.143 3.58.355 4.504a3.81 3.81 0 0 0 1.83 1.704c2.406 1.058 4.292.304 5.59-.658.672-.498 1.214-1.368 1.531-2.319a6.49 6.49 0 0 0 .286-1.27c1.461.015 4.79.055 6.378.154.051.821.315 2.094 1.327 3.111.564.567 1.187.878 1.812 1.01.124 4.588-.563 10.981-1.317 15.913A24.777 24.777 0 0 1 25 50c-4.627 0-8.96-1.26-12.675-3.458Zm23.41-24.109a56.265 56.265 0 0 0-1.154-4.375c-1.798-5.902-8.521-5.047-10.4-4.58-4.026 1.001-6.443 3.395-8.164 8.715-.045.14-.09.284-.135.431 1.053.396 2.031.857 2.744 1.332.923-.949 2.793-2.135 5.197-1.716.692.121 1.357.527 1.915 1.098.74.757 1.286 1.798 1.48 2.677 1.426.015 4.814.06 6.507.159.032-.294.078-.64.137-.939.109-.549.287-1.078.525-1.416.294-.42.785-.965 1.348-1.386Z" fill="#00B3FF"/><path fill-rule="evenodd" clip-rule="evenodd" d="M19.131 25.897c-.656 3.178.68 4.205 1.33 4.49 1.76.776 3.141.215 4.092-.49.454-.336.787-.945 1-1.587.223-.666.315-1.378.21-1.917-.126-.653-.541-1.437-1.098-2.007-.325-.332-.697-.598-1.1-.668-2.199-.384-3.81 1.018-4.16 1.646a.712.712 0 0 1-.07.106 1.952 1.952 0 0 0-.204.427ZM35.14 27.09c-.032.326-.082 1.653.893 2.632 1.038 1.044 2.405.621 3.15.073.44-.323.704-.831.871-1.38.287-.942.28-2.014.152-2.739-.296-1.68-1.713-2.271-2.554-2.44-.247-.049-.503.072-.752.22-.536.32-1.018.846-1.286 1.227-.14.2-.215.52-.28.844-.123.627-.159 1.277-.18 1.475a1.01 1.01 0 0 1-.014.088Z" fill="#000"/><path fill-rule="evenodd" clip-rule="evenodd" d="M27.261 27.515c-.05.418-.146.85-.285 1.269-.233.698-.587 1.352-1.024 1.848l-.016.017a3.283 3.283 0 0 1-.491.454c-.771.57-1.75 1.069-2.92 1.157l-.14.009a4.857 4.857 0 0 1-.237.006l-.096-.002-.145-.005-.098-.005a4.939 4.939 0 0 1-.199-.018l-.05-.005a5.53 5.53 0 0 1-1.26-.302l-.055-.02a6.52 6.52 0 0 1-.166-.064l-.168-.069-.056-.024a3.8 3.8 0 0 1-1.076-.715l-.063-.06a3.849 3.849 0 0 1-.559-.7l-.093-.158a5.294 5.294 0 0 1-.04-.07c-.498-.925-.81-2.339-.355-4.505a2.202 2.202 0 0 1 .079-.241l.048-.113-.171-.113-.03-.018a7.577 7.577 0 0 0-.474-.27l-.136-.069-.254-.125-.106-.05-.218-.098-.133-.058c-.257-.111-.525-.22-.8-.324a60.327 60.327 0 0 0-.915 4.27c-.851 4.703-1.553 10.785-2.215 17.981l-.02.217a26.288 26.288 0 0 1-1.42-.9c.89-9.554 1.857-17.091 3.15-22.06-1.584-.501-3.12-.832-3.806-.832-.546 0-.703.505-.68.914.008.128.032.253.076.36a.9.9 0 0 0 .087.147.75.75 0 0 1-.547 1.396c-.596-.225-1.064-.956-1.113-1.818-.068-1.192.586-2.499 2.178-2.499.757 0 2.46.345 4.211.889.042-.139.085-.274.128-.408 1.931-5.968 4.714-8.585 9.23-9.709 2.218-.552 10.073-1.372 12.196 5.598a58.727 58.727 0 0 1 1.11 4.151c.277-.054.554-.06.82-.006 1.243.248 3.299 1.164 3.737 3.65.16.91.166 2.255-.194 3.436-.264.866-.724 1.642-1.418 2.152-.474.348-1.101.649-1.79.784.112 4.355-.48 10.245-1.18 15.086-.533.296-1.08.574-1.638.829.387-2.532.757-5.448 1.008-8.308l.014-.16c.03-.357.06-.712.086-1.066.173-2.28.26-4.484.209-6.38a3.33 3.33 0 0 1-.338-.089l-.018-.006a3.368 3.368 0 0 1-.771-.363 3.782 3.782 0 0 1-.684-.551 4.327 4.327 0 0 1-.734-.984 4.654 4.654 0 0 1-.271-.594l-.024-.064a5.3 5.3 0 0 1-.299-1.469 35.36 35.36 0 0 0-.67-.034l-.188-.008a160.515 160.515 0 0 0-2.832-.075l-.446-.008-.852-.012-.395-.005-.366-.005-.629-.006Zm6.142 7.17c.038-.083.116-.262.128-.384.016-.15.016-.304-.041-.41-.342-.619-1.363-1.601-2.205-2.511a.75.75 0 0 1 1.102-1.019c.933 1.01 2.038 2.12 2.416 2.807.24.434.302 1.121.141 1.715-.173.636-.594 1.13-1.13 1.276-.368.1-.83.069-1.355-.289-.767-.521-2.372-2.485-3.173-3.782a.75.75 0 0 1 1.277-.788c.699 1.133 2.07 2.875 2.74 3.33.029.02.068.04.1.054ZM19.13 25.896c-.657 3.178.68 4.205 1.329 4.49 1.762.776 3.142.215 4.093-.49.454-.336.787-.945 1-1.587.223-.666.314-1.378.21-1.918-.126-.652-.542-1.436-1.099-2.006-.325-.332-.696-.598-1.1-.668-2.198-.384-3.81 1.018-4.159 1.646a.71.71 0 0 1-.071.106 1.948 1.948 0 0 0-.203.427Zm16.008 1.192c-.032.326-.082 1.653.892 2.632 1.039 1.044 2.405.621 3.15.073.44-.323.705-.832.872-1.38.287-.942.28-2.014.151-2.739-.296-1.68-1.713-2.271-2.553-2.44-.247-.049-.503.072-.753.22-.535.32-1.017.846-1.285 1.227-.14.199-.216.52-.28.844-.124.627-.159 1.277-.18 1.475a.971.971 0 0 1-.014.088Zm.596-4.656a56.265 56.265 0 0 0-1.154-4.375c-1.799-5.902-8.521-5.047-10.4-4.58-4.026 1.001-6.443 3.395-8.164 8.715-.046.14-.091.284-.136.431 1.054.396 2.031.857 2.745 1.332.922-.949 2.793-2.136 5.196-1.716.692.121 1.358.527 1.915 1.098.74.757 1.287 1.798 1.48 2.677 1.426.015 4.814.06 6.507.159.033-.294.078-.64.138-.939.108-.549.286-1.078.524-1.416.295-.42.785-.965 1.349-1.386Z" fill="#000"/></svg>
