<svg xmlns="http://www.w3.org/2000/svg" width="16" height="16" viewBox="0 0 16 16" fill="none"><path fill-rule="evenodd" clip-rule="evenodd" d="M.348 3.351C-.018 5.018-.8 10.656 2.655 14.118c2.379 2.385 5.84 1.952 7.216 1.621.537-.13.84-.59.703-1.114-.132-.495-.662-.551-1.17-.494-3.389.383-5.239-.851-5.94-2.16 2.326.698 6.365.598 8.435 0 1.498-.433 2.48-1.103 2.83-2.79.313-1.512.448-3.845-.071-5.874C14.312 1.96 13.599.899 11.975.459 9.68-.16 5.347-.147 3.053.47 1.582.866.596 2.216.348 3.351ZM10.9 5.253c0 .075.067 4.972.067 4.972.15-.025 1.019-.12 1.402-.504.787-.788 1.167-5.76-.015-6.944-1.299-1.302-8.607-1.084-9.71.022-.921.922-.9 5.734.011 6.922.217.284 1.14.477 1.494.513V5.238a1 1 0 0 1 .995-.988 1 1 0 0 1 .993.985l.022 5.21c.926.1 1.778.085 2.807-.009l-.053-5.183a.999.999 0 0 1 .994-1.003c.549 0 .993.45.993 1.003Z" fill="#C2C2C2"/></svg>
