<svg xmlns="http://www.w3.org/2000/svg" width="15" height="16" viewBox="0 0 15 16" fill="none"><path fill-rule="evenodd" clip-rule="evenodd" d="M5.404 6.989c-1.111-.38-2.009-1.277-2.318-2.476-.492-1.917.71-3.885 2.68-4.393C7.74-.387 9.74.758 10.234 2.675c.399 1.555-.315 3.142-1.649 3.958 1.29-.29 2.753-1.003 3.286-2.506a1.099 1.099 0 1 1 2.072.737c-.813 2.29-2.915 3.465-4.866 3.91.105.066.217.117.339.149 1.836.468 2.982 1.253 3.58 2.259.62 1.038.713 2.373.17 4.056a1.101 1.101 0 0 1-1.384.71 1.1 1.1 0 0 1-.708-1.385c.302-.934.38-1.678.036-2.254-.364-.61-1.126-.971-2.238-1.255a3.238 3.238 0 0 1-.5-.174c-.091 1.565-.547 2.737-1.348 3.527-.847.838-2.114 1.321-3.92 1.321a1.1 1.1 0 0 1 0-2.2c1.08 0 1.87-.186 2.377-.687.355-.35.547-.843.645-1.455.105-.65.096-1.414 0-2.292-.81.126-1.513.333-2.093.612-.715.343-1.483.77-1.878 1.303-.363.488-.946.866-1.517.658-.57-.207-.756-.838-.55-1.41.295-.81 1.37-1.563 2.312-2.16.774-.488 1.786-.877 3.005-1.108Zm.91-4.738c.78-.2 1.595.213 1.79.972.194.76-.32 1.514-1.1 1.715-.78.2-1.593-.214-1.789-.972-.194-.76.319-1.514 1.1-1.715Z" fill="#C2C2C2"/></svg>
