<svg xmlns="http://www.w3.org/2000/svg" width="9" height="16" viewBox="0 0 9 16" fill="none"><path fill-rule="evenodd" clip-rule="evenodd" d="M.006 11.947c0 .775.173 2.04 1.016 2.94C1.607 15.51 2.505 16 3.929 16c1.396 0 2.312-.46 2.926-1.053.916-.885 1.151-2.139 1.151-2.926 0-1-.06-2.935-.06-2.935a.983.983 0 0 0-.258-.634S6.085 6.7 5.24 5.875a1.039 1.039 0 0 0-1.445 0 .981.981 0 0 0 0 1.41c.616.6 1.648 1.713 2.12 2.224.017.6.047 1.798.047 2.512 0 .402-.077 1.057-.545 1.51-.308.297-.787.475-1.488.475-.675 0-1.123-.17-1.4-.466-.45-.481-.48-1.178-.48-1.592 0-.551-.457-.998-1.021-.998a1.01 1.01 0 0 0-1.022.998Zm8-7.894c0-.776-.174-2.04-1.016-2.939C6.405.49 5.506 0 4.083 0 2.686 0 1.77.46 1.156 1.053.24 1.94.006 3.193.006 3.98c0 1 .058 2.934.058 2.934.007.236.1.46.259.635 0 0 1.604 1.754 2.448 2.578a1.04 1.04 0 0 0 1.445 0 .981.981 0 0 0 0-1.41c-.615-.6-1.647-1.713-2.12-2.225-.016-.6-.046-1.798-.046-2.512 0-.401.077-1.057.544-1.508.309-.299.788-.476 1.49-.476.673 0 1.121.17 1.398.466.452.48.48 1.177.48 1.592 0 .55.458.998 1.022.998a1.01 1.01 0 0 0 1.022-.998Z" fill="#C2C2C2"/></svg>
