<svg xmlns="http://www.w3.org/2000/svg" xmlns:xlink="http://www.w3.org/1999/xlink" xmlns:serif="http://www.serif.com/" width="100%" height="100%" viewBox="0 0 38 51" version="1.1" xml:space="preserve" style="fill-rule:evenodd;clip-rule:evenodd;stroke-linejoin:round;stroke-miterlimit:2;">
    <g transform="matrix(1,0,0,1,0,-8.39233e-05)">
        <path d="M33.833,0L4.167,0C1.87,0 0,1.869 0,4.167L0,45.833C0,48.131 1.87,50 4.167,50L33.833,50C36.13,50 38,48.131 38,45.833L38,4.167C38,1.869 36.13,0 33.833,0ZM35.917,45.833L35.917,4.167C35.917,3.018 34.983,2.083 33.833,2.083L4.167,2.083C3.017,2.083 2.083,3.018 2.083,4.167L2.083,45.833C2.083,46.982 3.017,47.917 4.167,47.917L33.833,47.917C34.983,47.917 35.917,46.982 35.917,45.833ZM25,24.831L25,14.583C25,14.008 24.534,13.542 23.958,13.542L13.542,13.542C12.966,13.542 12.5,14.008 12.5,14.583L12.5,35.417C12.5,35.992 12.966,36.458 13.542,36.458L23.917,36.458C24.244,36.458 24.554,36.304 24.751,36.041L26.876,31.875C27.079,31.602 27.138,31.245 27.03,30.92L25,24.831ZM23.396,34.375L15.625,34.375L17.188,32.292L24.5,32.292L23.396,34.375ZM15.448,31.14L14.583,32.292L14.583,29.411L15.448,31.14ZM24.595,30.208L17.31,30.208L15.226,26.042L23.207,26.042L24.595,30.208ZM22.917,15.625L14.583,15.625L14.583,23.958L22.917,23.958L22.917,15.625ZM18.75,5.902C19.9,5.902 20.833,6.836 20.833,7.986C20.833,9.135 19.9,10.069 18.75,10.069C17.6,10.069 16.667,9.135 16.667,7.986C16.667,6.836 17.6,5.902 18.75,5.902Z"/>
        <path d="M18.75,39.931C19.9,39.931 20.833,40.865 20.833,42.014C20.833,43.164 19.9,44.098 18.75,44.098C17.6,44.098 16.667,43.164 16.667,42.014C16.667,40.865 17.6,39.931 18.75,39.931Z" fill="#FFB100"/>
    </g>
</svg>