<svg xmlns="http://www.w3.org/2000/svg" width="22" height="17" viewBox="0 0 22 17" fill="none"><path fill-rule="evenodd" clip-rule="evenodd" d="M21.304 2.614a8.77 8.77 0 0 1-1.098.393 4.754 4.754 0 0 0 .988-1.712.36.36 0 0 0-.12-.392.373.373 0 0 0-.416-.028 8.731 8.731 0 0 1-2.554.995A4.936 4.936 0 0 0 14.693.5C12.006.5 9.82 2.653 9.82 5.3c0 .21.014.417.04.622a12.528 12.528 0 0 1-8.563-4.476.374.374 0 0 0-.313-.133.365.365 0 0 0-.287.179 4.756 4.756 0 0 0 .5 5.527 4.34 4.34 0 0 1-.653-.287A.368.368 0 0 0 0 7.04v.064c0 1.727.943 3.28 2.385 4.13a4.32 4.32 0 0 1-.37-.054.371.371 0 0 0-.344.114.36.36 0 0 0-.074.35c.372 1.143 3.052 4.814 8.174 4.857 4.874-.005 9.812-3.612 9.812-10.683 0-.132-.003-.266-.006-.399a9.41 9.41 0 0 0 2.18-2.275.357.357 0 0 0-.024-.432.369.369 0 0 0-.429-.097Zm-4.657.674c.434.418.849 1.555.864 2.176.004.118.005.237.005.353 0 4.762-2.93 8.666-7.728 8.682-2.74-.026-4.598-1.344-5.538-2.406.036-.073.068-.148.095-.224a1.972 1.972 0 0 0-.886-2.346 2.807 2.807 0 0 1-.968-.944c.151-.118.287-.257.4-.417a1.948 1.948 0 0 0-.11-2.426 2.767 2.767 0 0 1-.326-.469 14.67 14.67 0 0 0 7.22 2.646 2.101 2.101 0 0 0 1.666-.598 1.957 1.957 0 0 0 .57-1.63A2.805 2.805 0 0 1 14.692 2.5c.73 0 1.434.287 1.954.788Z"/></svg>
