<svg width="100%" height="100%" viewBox="0 0 107 17" version="1.1" xmlns="http://www.w3.org/2000/svg" xmlns:xlink="http://www.w3.org/1999/xlink" xml:space="preserve" xmlns:serif="http://www.serif.com/" style="fill-rule:evenodd;clip-rule:evenodd;stroke-linejoin:round;stroke-miterlimit:2;">
    <g transform="matrix(1,0,0,1,0,-6.24344)">
        <g transform="matrix(1,0,0,1,-282.144,-249.492)">
            <g transform="matrix(1.03466,0,0,1.03466,-12.882,-9.12825)">
                <path d="M375.024,271.136C374.656,271.408 374.204,271.612 373.668,271.748C373.132,271.884 372.568,271.952 371.976,271.952C370.44,271.952 369.252,271.56 368.412,270.776C367.572,269.992 367.152,268.84 367.152,267.32L367.152,262.016L365.16,262.016L365.16,259.136L367.152,259.136L367.152,255.992L370.896,255.992L370.896,259.136L374.112,259.136L374.112,262.016L370.896,262.016L370.896,267.272C370.896,267.816 371.036,268.236 371.316,268.532C371.596,268.828 371.992,268.976 372.504,268.976C373.096,268.976 373.6,268.816 374.016,268.496L375.024,271.136ZM315.528,258.656C317.528,258.656 319.064,259.132 320.136,260.084C321.208,261.036 321.744,262.472 321.744,264.392L321.744,271.76L318.24,271.76L318.24,270.152C317.536,271.352 316.224,271.952 314.304,271.952C313.312,271.952 312.452,271.784 311.724,271.448C310.996,271.112 310.44,270.648 310.056,270.056C309.672,269.464 309.48,268.792 309.48,268.04C309.48,266.84 309.932,265.896 310.836,265.208C311.74,264.52 313.136,264.176 315.024,264.176L318,264.176C318,263.36 317.752,262.732 317.256,262.292C316.76,261.852 316.016,261.632 315.024,261.632C314.336,261.632 313.66,261.74 312.996,261.956C312.332,262.172 311.768,262.464 311.304,262.832L309.96,260.216C310.664,259.72 311.508,259.336 312.492,259.064C313.476,258.792 314.488,258.656 315.528,258.656ZM340.512,258.656C342.512,258.656 344.048,259.132 345.12,260.084C346.192,261.036 346.728,262.472 346.728,264.392L346.728,271.76L343.224,271.76L343.224,270.152C342.52,271.352 341.208,271.952 339.288,271.952C338.296,271.952 337.436,271.784 336.708,271.448C335.98,271.112 335.424,270.648 335.04,270.056C334.656,269.464 334.464,268.792 334.464,268.04C334.464,266.84 334.916,265.896 335.82,265.208C336.724,264.52 338.12,264.176 340.008,264.176L342.984,264.176C342.984,263.36 342.736,262.732 342.24,262.292C341.744,261.852 341,261.632 340.008,261.632C339.32,261.632 338.644,261.74 337.98,261.956C337.316,262.172 336.752,262.464 336.288,262.832L334.944,260.216C335.648,259.72 336.492,259.336 337.476,259.064C338.46,258.792 339.472,258.656 340.512,258.656ZM382.344,258.656C384.344,258.656 385.88,259.132 386.952,260.084C388.024,261.036 388.56,262.472 388.56,264.392L388.56,271.76L385.056,271.76L385.056,270.152C384.352,271.352 383.04,271.952 381.12,271.952C380.128,271.952 379.268,271.784 378.54,271.448C377.812,271.112 377.256,270.648 376.872,270.056C376.488,269.464 376.296,268.792 376.296,268.04C376.296,266.84 376.748,265.896 377.652,265.208C378.556,264.52 379.952,264.176 381.84,264.176L384.816,264.176C384.816,263.36 384.568,262.732 384.072,262.292C383.576,261.852 382.832,261.632 381.84,261.632C381.152,261.632 380.476,261.74 379.812,261.956C379.148,262.172 378.584,262.464 378.12,262.832L376.776,260.216C377.48,259.72 378.324,259.336 379.308,259.064C380.292,258.792 381.304,258.656 382.344,258.656ZM301.68,258.656C303.296,258.656 304.58,259.132 305.532,260.084C306.484,261.036 306.96,262.464 306.96,264.368L306.96,271.76L303.216,271.76L303.216,264.944C303.216,263.92 303.004,263.156 302.58,262.652C302.156,262.148 301.552,261.896 300.768,261.896C299.888,261.896 299.192,262.18 298.68,262.748C298.168,263.316 297.912,264.16 297.912,265.28L297.912,271.76L294.168,271.76L294.168,264.944C294.168,262.912 293.352,261.896 291.72,261.896C290.856,261.896 290.168,262.18 289.656,262.748C289.144,263.316 288.888,264.16 288.888,265.28L288.888,271.76L285.144,271.76L285.144,258.848L288.72,258.848L288.72,260.336C289.2,259.792 289.788,259.376 290.484,259.088C291.18,258.8 291.944,258.656 292.776,258.656C293.688,258.656 294.512,258.836 295.248,259.196C295.984,259.556 296.576,260.08 297.024,260.768C297.552,260.096 298.22,259.576 299.028,259.208C299.836,258.84 300.72,258.656 301.68,258.656ZM328.704,260.552C329.152,259.928 329.756,259.456 330.516,259.136C331.276,258.816 332.152,258.656 333.144,258.656L333.144,262.112C332.728,262.08 332.448,262.064 332.304,262.064C331.232,262.064 330.392,262.364 329.784,262.964C329.176,263.564 328.872,264.464 328.872,265.664L328.872,271.76L325.128,271.76L325.128,258.848L328.704,258.848L328.704,260.552ZM357.96,258.656C359.56,258.656 360.852,259.136 361.836,260.096C362.82,261.056 363.312,262.48 363.312,264.368L363.312,271.76L359.568,271.76L359.568,264.944C359.568,263.92 359.344,263.156 358.896,262.652C358.448,262.148 357.8,261.896 356.952,261.896C356.008,261.896 355.256,262.188 354.696,262.772C354.136,263.356 353.856,264.224 353.856,265.376L353.856,271.76L350.112,271.76L350.112,258.848L353.688,258.848L353.688,260.36C354.184,259.816 354.8,259.396 355.536,259.1C356.272,258.804 357.08,258.656 357.96,258.656ZM315.24,269.432C315.88,269.432 316.448,269.284 316.944,268.988C317.44,268.692 317.792,268.256 318,267.68L318,266.36L315.432,266.36C313.896,266.36 313.128,266.864 313.128,267.872C313.128,268.352 313.316,268.732 313.692,269.012C314.068,269.292 314.584,269.432 315.24,269.432ZM340.224,269.432C340.864,269.432 341.432,269.284 341.928,268.988C342.424,268.692 342.776,268.256 342.984,267.68L342.984,266.36L340.416,266.36C338.88,266.36 338.112,266.864 338.112,267.872C338.112,268.352 338.3,268.732 338.676,269.012C339.052,269.292 339.568,269.432 340.224,269.432ZM382.056,269.432C382.696,269.432 383.264,269.284 383.76,268.988C384.256,268.692 384.608,268.256 384.816,267.68L384.816,266.36L382.248,266.36C380.712,266.36 379.944,266.864 379.944,267.872C379.944,268.352 380.132,268.732 380.508,269.012C380.884,269.292 381.4,269.432 382.056,269.432Z" style="fill-rule:nonzero;"/>
            </g>
        </g>
    </g>
</svg>
