<svg width="16" height="16" viewBox="0 0 242 242" version="1.1" xmlns="http://www.w3.org/2000/svg" xmlns:xlink="http://www.w3.org/1999/xlink" xml:space="preserve" xmlns:serif="http://www.serif.com/" style="fill-rule:evenodd;clip-rule:evenodd;stroke-linejoin:round;stroke-miterlimit:2;">
    <g transform="matrix(1,0,0,1,-0.0008,-4.7e-05)">
        <g transform="matrix(1,0,0,1,-198.728,-135.488)">
            <path d="M433.838,169.305C435.854,174.484 438.248,182.27 438.9,196.602C439.607,212.102 439.756,216.75 439.756,256.004C439.756,295.254 439.607,299.902 438.9,315.406C438.244,329.738 435.85,337.52 433.838,342.699C428.893,355.52 418.76,365.652 405.939,370.598C400.76,372.613 392.975,375.008 378.643,375.66C363.146,376.367 358.498,376.516 319.24,376.516C279.986,376.516 275.342,376.367 259.842,375.66C245.51,375.008 237.725,372.613 232.545,370.598C226.158,368.242 220.385,364.484 215.643,359.602C210.76,354.859 207.006,349.086 204.646,342.699C202.635,337.52 200.24,329.738 199.588,315.406C198.881,299.902 198.729,295.254 198.729,256.004C198.729,216.75 198.881,212.102 199.588,196.602C200.24,182.27 202.635,174.484 204.646,169.305C207.006,162.918 210.764,157.145 215.646,152.402C220.385,147.52 226.162,143.762 232.549,141.406C237.725,139.395 245.51,137 259.842,136.344C275.342,135.637 279.99,135.488 319.244,135.488C358.494,135.488 363.143,135.641 378.646,136.348C392.979,137 400.76,139.395 405.939,141.406C412.326,143.762 418.1,147.52 422.842,152.402C427.725,157.145 431.482,162.922 433.838,169.305ZM319.244,331.484C277.553,331.484 243.756,297.691 243.756,256C243.756,214.309 277.553,180.516 319.244,180.516C360.932,180.516 394.729,214.309 394.729,256C394.729,297.691 360.932,331.484 319.244,331.484ZM368.242,256.002C368.242,283.064 346.305,305.002 319.242,305.002C292.18,305.002 270.242,283.064 270.242,256.002C270.242,228.939 292.18,207.002 319.242,207.002C346.305,207.002 368.242,228.939 368.242,256.002ZM397.713,195.172C387.971,195.172 380.072,187.273 380.072,177.531C380.072,167.789 387.971,159.891 397.713,159.891C407.455,159.891 415.354,167.789 415.354,177.531C415.35,187.273 407.455,195.172 397.713,195.172Z"/>
        </g>
    </g>
</svg>