<svg width="100%" height="100%" viewBox="0 0 16 16" version="1.1" xmlns="http://www.w3.org/2000/svg" xmlns:xlink="http://www.w3.org/1999/xlink" xml:space="preserve" xmlns:serif="http://www.serif.com/" style="fill-rule:evenodd;clip-rule:evenodd;stroke-linejoin:round;stroke-miterlimit:2;">
    <g transform="matrix(0.03125,0,0,0.03125,0,0)">
        <path d="M512,102.4C512,45.884 466.116,0 409.6,0L102.4,0C45.884,0 0,45.884 0,102.4L0,409.6C0,466.116 45.884,512 102.4,512L409.6,512C466.116,512 512,466.116 512,409.6L512,102.4ZM448,102.4L448,409.6C448,430.794 430.794,448 409.6,448L102.4,448C81.206,448 64,430.794 64,409.6L64,102.4C64,81.206 81.206,64 102.4,64L409.6,64C430.794,64 448,81.206 448,102.4ZM255.5,127.5C326.421,127.5 384,185.079 384,256C384,326.921 326.421,384.5 255.5,384.5C184.579,384.5 127,326.921 127,256C127,185.079 184.579,127.5 255.5,127.5ZM255.5,191.5C291.099,191.5 320,220.401 320,256C320,291.599 291.099,320.5 255.5,320.5C219.901,320.5 191,291.599 191,256C191,220.401 219.901,191.5 255.5,191.5Z"/>
    </g>
</svg>