<svg xmlns="http://www.w3.org/2000/svg" xmlns:xlink="http://www.w3.org/1999/xlink" xmlns:serif="http://www.serif.com/" width="100%" height="100%" viewBox="0 0 38 51" version="1.1" xml:space="preserve" style="fill-rule:evenodd;clip-rule:evenodd;stroke-linejoin:round;stroke-miterlimit:2;">
    <g transform="matrix(1,0,0,1,0,-8.39233e-05)">
        <path d="M33.833,50L4.167,50C1.87,50 0,48.131 0,45.833L0,4.167C0,1.869 1.87,0 4.167,0L33.833,0C36.13,0 38,1.869 38,4.167L38,45.833C38,48.131 36.13,50 33.833,50ZM35.917,4.167L35.917,45.833C35.917,46.982 34.983,47.917 33.833,47.917L4.167,47.917C3.017,47.917 2.083,46.982 2.083,45.833L2.083,4.167C2.083,3.018 3.017,2.083 4.167,2.083L33.833,2.083C34.983,2.083 35.917,3.018 35.917,4.167ZM18.75,10.069C19.9,10.069 20.833,9.135 20.833,7.986C20.833,6.836 19.9,5.902 18.75,5.902C17.6,5.902 16.667,6.836 16.667,7.986C16.667,9.135 17.6,10.069 18.75,10.069ZM25,25.169L25,35.417C25,35.992 24.534,36.458 23.958,36.458L13.542,36.458C12.966,36.458 12.5,35.992 12.5,35.417L12.5,14.583C12.5,14.008 12.966,13.542 13.542,13.542L23.917,13.542C24.244,13.542 24.554,13.696 24.751,13.959L26.876,18.125C27.079,18.398 27.138,18.755 27.03,19.08L25,25.169ZM23.396,15.625L15.625,15.625L17.188,17.708L24.5,17.708L23.396,15.625ZM15.448,18.86L14.583,17.708L14.583,20.589L15.448,18.86ZM24.595,19.792L17.31,19.792L15.226,23.958L23.207,23.958L24.595,19.792ZM22.917,34.375L14.583,34.375L14.583,26.042L22.917,26.042L22.917,34.375ZM18.75,44.098C19.9,44.098 20.833,43.164 20.833,42.014C20.833,40.865 19.9,39.931 18.75,39.931C17.6,39.931 16.667,40.865 16.667,42.014C16.667,43.164 17.6,44.098 18.75,44.098Z"/>
    </g>
</svg>