<svg width="100%" height="100%" viewBox="0 0 38 50" version="1.1" xmlns="http://www.w3.org/2000/svg" xmlns:xlink="http://www.w3.org/1999/xlink" xml:space="preserve" xmlns:serif="http://www.serif.com/" style="fill-rule:evenodd;clip-rule:evenodd;stroke-linejoin:round;stroke-miterlimit:2;">
    <path d="M33.333,0L4.167,0C1.87,0 0,1.869 0,4.167L0,45.833C0,48.131 1.87,50 4.167,50L33.333,50C35.63,50 37.5,48.131 37.5,45.833L37.5,4.167C37.5,1.869 35.63,0 33.333,0ZM35.417,45.833L35.417,4.167C35.417,3.018 34.483,2.083 33.333,2.083L4.167,2.083C3.017,2.083 2.083,3.018 2.083,4.167L2.083,45.833C2.083,46.982 3.017,47.917 4.167,47.917L33.333,47.917C34.483,47.917 35.417,46.982 35.417,45.833ZM25,25.169L25,35.417C25,35.992 24.534,36.458 23.958,36.458L13.542,36.458C12.966,36.458 12.5,35.992 12.5,35.417L12.5,14.583C12.5,14.008 12.966,13.542 13.542,13.542L22.917,13.542C23.244,13.542 23.554,13.696 23.751,13.959L26.876,18.125C27.079,18.398 27.138,18.755 27.03,19.08L25,25.169ZM22.917,34.375L14.583,34.375L14.583,26.042L22.917,26.042L22.917,34.375ZM24.595,19.792L17.31,19.792L15.226,23.958L23.207,23.958L24.595,19.792ZM15.448,18.86L14.583,17.708L14.583,20.589L15.448,18.86ZM22.396,15.625L15.625,15.625L17.188,17.708L23.958,17.708L22.396,15.625ZM18.75,5.902C19.9,5.902 20.833,6.836 20.833,7.986C20.833,9.135 19.9,10.069 18.75,10.069C17.6,10.069 16.667,9.135 16.667,7.986C16.667,6.836 17.6,5.902 18.75,5.902Z"/>
    <g transform="matrix(0.0976562,0,0,0.0976562,3.2e-06,0.66145)">
        <path d="M192,402.121C203.774,402.121 213.333,411.68 213.333,423.454C213.333,435.228 203.774,444.787 192,444.787C180.226,444.787 170.667,435.228 170.667,423.454C170.667,411.68 180.226,402.121 192,402.121Z" style="fill:rgb(255,111,111);"/>
    </g>
</svg>
