<svg width="19" height="17" viewBox="0 0 19 17" fill="none" xmlns="http://www.w3.org/2000/svg">
<path d="M0.923579 8.43275L5.02051 10.0132L6.60542 15.2844C6.70764 15.6213 7.10675 15.7466 7.37165 15.5226L9.65522 13.5981C9.89434 13.3963 10.2357 13.3866 10.4855 13.5741L14.6037 16.6648C14.8873 16.8782 15.2891 16.7173 15.3602 16.3635L18.3771 1.36246C18.4553 0.974898 18.0873 0.652229 17.7309 0.795341L0.919135 7.4994C0.50402 7.66474 0.507575 8.27186 0.923579 8.43275ZM6.3503 9.17142L14.3557 4.07448C14.4997 3.98382 14.6482 4.18471 14.5246 4.30293L7.91743 10.6514C7.68543 10.8754 7.5352 11.1741 7.49254 11.4986L7.26764 13.223C7.23831 13.4532 6.92542 13.4763 6.86408 13.2532L5.9983 10.1092C5.89874 9.75098 6.04363 9.36787 6.3503 9.17142Z" />
</svg>
